G04 #@! TF.GenerationSoftware,KiCad,Pcbnew,6.0.4*
G04 #@! TF.CreationDate,2022-04-09T16:32:54+02:00*
G04 #@! TF.ProjectId,main,6d61696e-2e6b-4696-9361-645f70636258,rev?*
G04 #@! TF.SameCoordinates,Original*
G04 #@! TF.FileFunction,Legend,Top*
G04 #@! TF.FilePolarity,Positive*
%FSLAX46Y46*%
G04 Gerber Fmt 4.6, Leading zero omitted, Abs format (unit mm)*
G04 Created by KiCad (PCBNEW 6.0.4) date 2022-04-09 16:32:54*
%MOMM*%
%LPD*%
G01*
G04 APERTURE LIST*
G04 Aperture macros list*
%AMRoundRect*
0 Rectangle with rounded corners*
0 $1 Rounding radius*
0 $2 $3 $4 $5 $6 $7 $8 $9 X,Y pos of 4 corners*
0 Add a 4 corners polygon primitive as box body*
4,1,4,$2,$3,$4,$5,$6,$7,$8,$9,$2,$3,0*
0 Add four circle primitives for the rounded corners*
1,1,$1+$1,$2,$3*
1,1,$1+$1,$4,$5*
1,1,$1+$1,$6,$7*
1,1,$1+$1,$8,$9*
0 Add four rect primitives between the rounded corners*
20,1,$1+$1,$2,$3,$4,$5,0*
20,1,$1+$1,$4,$5,$6,$7,0*
20,1,$1+$1,$6,$7,$8,$9,0*
20,1,$1+$1,$8,$9,$2,$3,0*%
G04 Aperture macros list end*
%ADD10C,0.150000*%
%ADD11C,0.254000*%
%ADD12C,0.200000*%
%ADD13C,0.100000*%
%ADD14C,0.120000*%
%ADD15C,0.250000*%
%ADD16C,0.127000*%
%ADD17R,1.000000X0.750000*%
%ADD18RoundRect,0.237500X-0.237500X0.250000X-0.237500X-0.250000X0.237500X-0.250000X0.237500X0.250000X0*%
%ADD19RoundRect,0.237500X-0.250000X-0.237500X0.250000X-0.237500X0.250000X0.237500X-0.250000X0.237500X0*%
%ADD20RoundRect,0.237500X0.250000X0.237500X-0.250000X0.237500X-0.250000X-0.237500X0.250000X-0.237500X0*%
%ADD21RoundRect,0.250000X-0.325000X-0.450000X0.325000X-0.450000X0.325000X0.450000X-0.325000X0.450000X0*%
%ADD22RoundRect,0.250000X0.325000X0.450000X-0.325000X0.450000X-0.325000X-0.450000X0.325000X-0.450000X0*%
%ADD23RoundRect,0.237500X-0.287500X-0.237500X0.287500X-0.237500X0.287500X0.237500X-0.287500X0.237500X0*%
%ADD24R,0.700000X0.600000*%
%ADD25R,1.700000X1.700000*%
%ADD26O,1.700000X1.700000*%
%ADD27R,3.800000X2.000000*%
%ADD28R,1.500000X2.000000*%
%ADD29C,2.000000*%
%ADD30R,2.500000X1.800000*%
%ADD31RoundRect,0.237500X0.237500X-0.250000X0.237500X0.250000X-0.237500X0.250000X-0.237500X-0.250000X0*%
%ADD32RoundRect,0.150000X-0.150000X0.587500X-0.150000X-0.587500X0.150000X-0.587500X0.150000X0.587500X0*%
%ADD33RoundRect,0.237500X0.237500X-0.300000X0.237500X0.300000X-0.237500X0.300000X-0.237500X-0.300000X0*%
%ADD34R,7.340000X6.350000*%
%ADD35C,2.390000*%
%ADD36C,3.450000*%
%ADD37RoundRect,0.250000X0.450000X-0.350000X0.450000X0.350000X-0.450000X0.350000X-0.450000X-0.350000X0*%
%ADD38RoundRect,0.150000X0.587500X0.150000X-0.587500X0.150000X-0.587500X-0.150000X0.587500X-0.150000X0*%
%ADD39RoundRect,0.237500X-0.237500X0.300000X-0.237500X-0.300000X0.237500X-0.300000X0.237500X0.300000X0*%
%ADD40R,0.300000X1.600000*%
%ADD41R,0.450000X0.800000*%
%ADD42R,1.700000X1.250000*%
%ADD43R,1.800000X2.500000*%
%ADD44RoundRect,0.150000X-0.587500X-0.150000X0.587500X-0.150000X0.587500X0.150000X-0.587500X0.150000X0*%
%ADD45R,0.400000X1.050000*%
%ADD46R,0.550000X1.050000*%
%ADD47RoundRect,0.150000X-0.825000X-0.150000X0.825000X-0.150000X0.825000X0.150000X-0.825000X0.150000X0*%
%ADD48RoundRect,0.150000X0.512500X0.150000X-0.512500X0.150000X-0.512500X-0.150000X0.512500X-0.150000X0*%
%ADD49RoundRect,0.150000X0.825000X0.150000X-0.825000X0.150000X-0.825000X-0.150000X0.825000X-0.150000X0*%
%ADD50R,3.350000X3.350000*%
%ADD51R,0.300000X1.000000*%
%ADD52R,1.000000X0.300000*%
%ADD53O,2.140000X1.070000*%
%ADD54C,1.300000*%
%ADD55R,1.350000X0.600000*%
%ADD56R,1.250000X0.400000*%
%ADD57R,0.600000X0.400000*%
%ADD58R,1.500000X2.400000*%
%ADD59RoundRect,0.237500X0.300000X0.237500X-0.300000X0.237500X-0.300000X-0.237500X0.300000X-0.237500X0*%
%ADD60RoundRect,0.237500X-0.300000X-0.237500X0.300000X-0.237500X0.300000X0.237500X-0.300000X0.237500X0*%
G04 APERTURE END LIST*
D10*
X135619047Y-104821428D02*
X136380952Y-104821428D01*
X136000000Y-105202380D02*
X136000000Y-104440476D01*
X117369047Y-93821428D02*
X118130952Y-93821428D01*
X117750000Y-94202380D02*
X117750000Y-93440476D01*
X162869047Y-107071428D02*
X163630952Y-107071428D01*
X163250000Y-107452380D02*
X163250000Y-106690476D01*
X102869047Y-102071428D02*
X103630952Y-102071428D01*
X103250000Y-102452380D02*
X103250000Y-101690476D01*
X173869047Y-91321428D02*
X174630952Y-91321428D01*
X174250000Y-91702380D02*
X174250000Y-90940476D01*
X128369047Y-84821428D02*
X129130952Y-84821428D01*
X128750000Y-85202380D02*
X128750000Y-84440476D01*
X164869047Y-91071428D02*
X165630952Y-91071428D01*
X165250000Y-91452380D02*
X165250000Y-90690476D01*
X170369047Y-86321428D02*
X171130952Y-86321428D01*
X170750000Y-86702380D02*
X170750000Y-85940476D01*
X104500000Y-88857142D02*
X104547619Y-88904761D01*
X104500000Y-88952380D01*
X104452380Y-88904761D01*
X104500000Y-88857142D01*
X104500000Y-88952380D01*
X139000000Y-97607142D02*
X139047619Y-97654761D01*
X139000000Y-97702380D01*
X138952380Y-97654761D01*
X139000000Y-97607142D01*
X139000000Y-97702380D01*
X90559523Y-86702380D02*
X90083333Y-86702380D01*
X90035714Y-87178571D01*
X90083333Y-87130952D01*
X90178571Y-87083333D01*
X90416666Y-87083333D01*
X90511904Y-87130952D01*
X90559523Y-87178571D01*
X90607142Y-87273809D01*
X90607142Y-87511904D01*
X90559523Y-87607142D01*
X90511904Y-87654761D01*
X90416666Y-87702380D01*
X90178571Y-87702380D01*
X90083333Y-87654761D01*
X90035714Y-87607142D01*
X90892857Y-86702380D02*
X91226190Y-87702380D01*
X91559523Y-86702380D01*
X90011904Y-90166666D02*
X90488095Y-90166666D01*
X89916666Y-90452380D02*
X90250000Y-89452380D01*
X90583333Y-90452380D01*
X90916666Y-90452380D02*
X90916666Y-89452380D01*
X91154761Y-89452380D01*
X91297619Y-89500000D01*
X91392857Y-89595238D01*
X91440476Y-89690476D01*
X91488095Y-89880952D01*
X91488095Y-90023809D01*
X91440476Y-90214285D01*
X91392857Y-90309523D01*
X91297619Y-90404761D01*
X91154761Y-90452380D01*
X90916666Y-90452380D01*
X92488095Y-90357142D02*
X92440476Y-90404761D01*
X92297619Y-90452380D01*
X92202380Y-90452380D01*
X92059523Y-90404761D01*
X91964285Y-90309523D01*
X91916666Y-90214285D01*
X91869047Y-90023809D01*
X91869047Y-89880952D01*
X91916666Y-89690476D01*
X91964285Y-89595238D01*
X92059523Y-89500000D01*
X92202380Y-89452380D01*
X92297619Y-89452380D01*
X92440476Y-89500000D01*
X92488095Y-89547619D01*
X90476190Y-92000000D02*
X90380952Y-91952380D01*
X90238095Y-91952380D01*
X90095238Y-92000000D01*
X90000000Y-92095238D01*
X89952380Y-92190476D01*
X89904761Y-92380952D01*
X89904761Y-92523809D01*
X89952380Y-92714285D01*
X90000000Y-92809523D01*
X90095238Y-92904761D01*
X90238095Y-92952380D01*
X90333333Y-92952380D01*
X90476190Y-92904761D01*
X90523809Y-92857142D01*
X90523809Y-92523809D01*
X90333333Y-92523809D01*
X90714285Y-93047619D02*
X91476190Y-93047619D01*
X91666666Y-92904761D02*
X91809523Y-92952380D01*
X92047619Y-92952380D01*
X92142857Y-92904761D01*
X92190476Y-92857142D01*
X92238095Y-92761904D01*
X92238095Y-92666666D01*
X92190476Y-92571428D01*
X92142857Y-92523809D01*
X92047619Y-92476190D01*
X91857142Y-92428571D01*
X91761904Y-92380952D01*
X91714285Y-92333333D01*
X91666666Y-92238095D01*
X91666666Y-92142857D01*
X91714285Y-92047619D01*
X91761904Y-92000000D01*
X91857142Y-91952380D01*
X92095238Y-91952380D01*
X92238095Y-92000000D01*
X92666666Y-92952380D02*
X92666666Y-91952380D01*
X92904761Y-91952380D01*
X93047619Y-92000000D01*
X93142857Y-92095238D01*
X93190476Y-92190476D01*
X93238095Y-92380952D01*
X93238095Y-92523809D01*
X93190476Y-92714285D01*
X93142857Y-92809523D01*
X93047619Y-92904761D01*
X92904761Y-92952380D01*
X92666666Y-92952380D01*
X93619047Y-92666666D02*
X94095238Y-92666666D01*
X93523809Y-92952380D02*
X93857142Y-91952380D01*
X94190476Y-92952380D01*
X90500000Y-94500000D02*
X90404761Y-94452380D01*
X90261904Y-94452380D01*
X90119047Y-94500000D01*
X90023809Y-94595238D01*
X89976190Y-94690476D01*
X89928571Y-94880952D01*
X89928571Y-95023809D01*
X89976190Y-95214285D01*
X90023809Y-95309523D01*
X90119047Y-95404761D01*
X90261904Y-95452380D01*
X90357142Y-95452380D01*
X90500000Y-95404761D01*
X90547619Y-95357142D01*
X90547619Y-95023809D01*
X90357142Y-95023809D01*
X90738095Y-95547619D02*
X91500000Y-95547619D01*
X91690476Y-95404761D02*
X91833333Y-95452380D01*
X92071428Y-95452380D01*
X92166666Y-95404761D01*
X92214285Y-95357142D01*
X92261904Y-95261904D01*
X92261904Y-95166666D01*
X92214285Y-95071428D01*
X92166666Y-95023809D01*
X92071428Y-94976190D01*
X91880952Y-94928571D01*
X91785714Y-94880952D01*
X91738095Y-94833333D01*
X91690476Y-94738095D01*
X91690476Y-94642857D01*
X91738095Y-94547619D01*
X91785714Y-94500000D01*
X91880952Y-94452380D01*
X92119047Y-94452380D01*
X92261904Y-94500000D01*
X93261904Y-95357142D02*
X93214285Y-95404761D01*
X93071428Y-95452380D01*
X92976190Y-95452380D01*
X92833333Y-95404761D01*
X92738095Y-95309523D01*
X92690476Y-95214285D01*
X92642857Y-95023809D01*
X92642857Y-94880952D01*
X92690476Y-94690476D01*
X92738095Y-94595238D01*
X92833333Y-94500000D01*
X92976190Y-94452380D01*
X93071428Y-94452380D01*
X93214285Y-94500000D01*
X93261904Y-94547619D01*
X94166666Y-95452380D02*
X93690476Y-95452380D01*
X93690476Y-94452380D01*
X90047619Y-98202380D02*
X90047619Y-97202380D01*
X90047619Y-97678571D02*
X90619047Y-97678571D01*
X90619047Y-98202380D02*
X90619047Y-97202380D01*
X90952380Y-97202380D02*
X91523809Y-97202380D01*
X91238095Y-98202380D02*
X91238095Y-97202380D01*
X91619047Y-98297619D02*
X92380952Y-98297619D01*
X92571428Y-98154761D02*
X92714285Y-98202380D01*
X92952380Y-98202380D01*
X93047619Y-98154761D01*
X93095238Y-98107142D01*
X93142857Y-98011904D01*
X93142857Y-97916666D01*
X93095238Y-97821428D01*
X93047619Y-97773809D01*
X92952380Y-97726190D01*
X92761904Y-97678571D01*
X92666666Y-97630952D01*
X92619047Y-97583333D01*
X92571428Y-97488095D01*
X92571428Y-97392857D01*
X92619047Y-97297619D01*
X92666666Y-97250000D01*
X92761904Y-97202380D01*
X93000000Y-97202380D01*
X93142857Y-97250000D01*
X93571428Y-98202380D02*
X93571428Y-97202380D01*
X93809523Y-97202380D01*
X93952380Y-97250000D01*
X94047619Y-97345238D01*
X94095238Y-97440476D01*
X94142857Y-97630952D01*
X94142857Y-97773809D01*
X94095238Y-97964285D01*
X94047619Y-98059523D01*
X93952380Y-98154761D01*
X93809523Y-98202380D01*
X93571428Y-98202380D01*
X94523809Y-97916666D02*
X95000000Y-97916666D01*
X94428571Y-98202380D02*
X94761904Y-97202380D01*
X95095238Y-98202380D01*
X90071428Y-100452380D02*
X90071428Y-99452380D01*
X90071428Y-99928571D02*
X90642857Y-99928571D01*
X90642857Y-100452380D02*
X90642857Y-99452380D01*
X90976190Y-99452380D02*
X91547619Y-99452380D01*
X91261904Y-100452380D02*
X91261904Y-99452380D01*
X91642857Y-100547619D02*
X92404761Y-100547619D01*
X92595238Y-100404761D02*
X92738095Y-100452380D01*
X92976190Y-100452380D01*
X93071428Y-100404761D01*
X93119047Y-100357142D01*
X93166666Y-100261904D01*
X93166666Y-100166666D01*
X93119047Y-100071428D01*
X93071428Y-100023809D01*
X92976190Y-99976190D01*
X92785714Y-99928571D01*
X92690476Y-99880952D01*
X92642857Y-99833333D01*
X92595238Y-99738095D01*
X92595238Y-99642857D01*
X92642857Y-99547619D01*
X92690476Y-99500000D01*
X92785714Y-99452380D01*
X93023809Y-99452380D01*
X93166666Y-99500000D01*
X94166666Y-100357142D02*
X94119047Y-100404761D01*
X93976190Y-100452380D01*
X93880952Y-100452380D01*
X93738095Y-100404761D01*
X93642857Y-100309523D01*
X93595238Y-100214285D01*
X93547619Y-100023809D01*
X93547619Y-99880952D01*
X93595238Y-99690476D01*
X93642857Y-99595238D01*
X93738095Y-99500000D01*
X93880952Y-99452380D01*
X93976190Y-99452380D01*
X94119047Y-99500000D01*
X94166666Y-99547619D01*
X95071428Y-100452380D02*
X94595238Y-100452380D01*
X94595238Y-99452380D01*
X89988095Y-102202380D02*
X89988095Y-103011904D01*
X90035714Y-103107142D01*
X90083333Y-103154761D01*
X90178571Y-103202380D01*
X90369047Y-103202380D01*
X90464285Y-103154761D01*
X90511904Y-103107142D01*
X90559523Y-103011904D01*
X90559523Y-102202380D01*
X90988095Y-103154761D02*
X91130952Y-103202380D01*
X91369047Y-103202380D01*
X91464285Y-103154761D01*
X91511904Y-103107142D01*
X91559523Y-103011904D01*
X91559523Y-102916666D01*
X91511904Y-102821428D01*
X91464285Y-102773809D01*
X91369047Y-102726190D01*
X91178571Y-102678571D01*
X91083333Y-102630952D01*
X91035714Y-102583333D01*
X90988095Y-102488095D01*
X90988095Y-102392857D01*
X91035714Y-102297619D01*
X91083333Y-102250000D01*
X91178571Y-102202380D01*
X91416666Y-102202380D01*
X91559523Y-102250000D01*
X92321428Y-102678571D02*
X92464285Y-102726190D01*
X92511904Y-102773809D01*
X92559523Y-102869047D01*
X92559523Y-103011904D01*
X92511904Y-103107142D01*
X92464285Y-103154761D01*
X92369047Y-103202380D01*
X91988095Y-103202380D01*
X91988095Y-102202380D01*
X92321428Y-102202380D01*
X92416666Y-102250000D01*
X92464285Y-102297619D01*
X92511904Y-102392857D01*
X92511904Y-102488095D01*
X92464285Y-102583333D01*
X92416666Y-102630952D01*
X92321428Y-102678571D01*
X91988095Y-102678571D01*
X90238095Y-104452380D02*
X90809523Y-104452380D01*
X90523809Y-105452380D02*
X90523809Y-104452380D01*
X91047619Y-104452380D02*
X91714285Y-105452380D01*
X91714285Y-104452380D02*
X91047619Y-105452380D01*
X90833333Y-107952380D02*
X90500000Y-107476190D01*
X90261904Y-107952380D02*
X90261904Y-106952380D01*
X90642857Y-106952380D01*
X90738095Y-107000000D01*
X90785714Y-107047619D01*
X90833333Y-107142857D01*
X90833333Y-107285714D01*
X90785714Y-107380952D01*
X90738095Y-107428571D01*
X90642857Y-107476190D01*
X90261904Y-107476190D01*
X91166666Y-106952380D02*
X91833333Y-107952380D01*
X91833333Y-106952380D02*
X91166666Y-107952380D01*
X90738095Y-110000000D02*
X90642857Y-109952380D01*
X90500000Y-109952380D01*
X90357142Y-110000000D01*
X90261904Y-110095238D01*
X90214285Y-110190476D01*
X90166666Y-110380952D01*
X90166666Y-110523809D01*
X90214285Y-110714285D01*
X90261904Y-110809523D01*
X90357142Y-110904761D01*
X90500000Y-110952380D01*
X90595238Y-110952380D01*
X90738095Y-110904761D01*
X90785714Y-110857142D01*
X90785714Y-110523809D01*
X90595238Y-110523809D01*
X91214285Y-110952380D02*
X91214285Y-109952380D01*
X91785714Y-110952380D01*
X91785714Y-109952380D01*
X92261904Y-110952380D02*
X92261904Y-109952380D01*
X92500000Y-109952380D01*
X92642857Y-110000000D01*
X92738095Y-110095238D01*
X92785714Y-110190476D01*
X92833333Y-110380952D01*
X92833333Y-110523809D01*
X92785714Y-110714285D01*
X92738095Y-110809523D01*
X92642857Y-110904761D01*
X92500000Y-110952380D01*
X92261904Y-110952380D01*
X125380952Y-114952380D02*
X124809523Y-114952380D01*
X125095238Y-114952380D02*
X125095238Y-113952380D01*
X125000000Y-114095238D01*
X124904761Y-114190476D01*
X124809523Y-114238095D01*
X125666666Y-113952380D02*
X126000000Y-114952380D01*
X126333333Y-113952380D01*
X126809523Y-114380952D02*
X126714285Y-114333333D01*
X126666666Y-114285714D01*
X126619047Y-114190476D01*
X126619047Y-114142857D01*
X126666666Y-114047619D01*
X126714285Y-114000000D01*
X126809523Y-113952380D01*
X127000000Y-113952380D01*
X127095238Y-114000000D01*
X127142857Y-114047619D01*
X127190476Y-114142857D01*
X127190476Y-114190476D01*
X127142857Y-114285714D01*
X127095238Y-114333333D01*
X127000000Y-114380952D01*
X126809523Y-114380952D01*
X126714285Y-114428571D01*
X126666666Y-114476190D01*
X126619047Y-114571428D01*
X126619047Y-114761904D01*
X126666666Y-114857142D01*
X126714285Y-114904761D01*
X126809523Y-114952380D01*
X127000000Y-114952380D01*
X127095238Y-114904761D01*
X127142857Y-114857142D01*
X127190476Y-114761904D01*
X127190476Y-114571428D01*
X127142857Y-114476190D01*
X127095238Y-114428571D01*
X127000000Y-114380952D01*
X105664285Y-105432380D02*
X105330952Y-104956190D01*
X105092857Y-105432380D02*
X105092857Y-104432380D01*
X105473809Y-104432380D01*
X105569047Y-104480000D01*
X105616666Y-104527619D01*
X105664285Y-104622857D01*
X105664285Y-104765714D01*
X105616666Y-104860952D01*
X105569047Y-104908571D01*
X105473809Y-104956190D01*
X105092857Y-104956190D01*
X106092857Y-104908571D02*
X106426190Y-104908571D01*
X106569047Y-105432380D02*
X106092857Y-105432380D01*
X106092857Y-104432380D01*
X106569047Y-104432380D01*
X107521428Y-104480000D02*
X107426190Y-104432380D01*
X107283333Y-104432380D01*
X107140476Y-104480000D01*
X107045238Y-104575238D01*
X106997619Y-104670476D01*
X106950000Y-104860952D01*
X106950000Y-105003809D01*
X106997619Y-105194285D01*
X107045238Y-105289523D01*
X107140476Y-105384761D01*
X107283333Y-105432380D01*
X107378571Y-105432380D01*
X107521428Y-105384761D01*
X107569047Y-105337142D01*
X107569047Y-105003809D01*
X107378571Y-105003809D01*
X107759523Y-105527619D02*
X108521428Y-105527619D01*
X108759523Y-105432380D02*
X108759523Y-104432380D01*
X109235714Y-105432380D02*
X109235714Y-104432380D01*
X109807142Y-105432380D01*
X109807142Y-104432380D01*
X138044761Y-114882380D02*
X137568571Y-114882380D01*
X137568571Y-113882380D01*
X138330476Y-114834761D02*
X138473333Y-114882380D01*
X138711428Y-114882380D01*
X138806666Y-114834761D01*
X138854285Y-114787142D01*
X138901904Y-114691904D01*
X138901904Y-114596666D01*
X138854285Y-114501428D01*
X138806666Y-114453809D01*
X138711428Y-114406190D01*
X138520952Y-114358571D01*
X138425714Y-114310952D01*
X138378095Y-114263333D01*
X138330476Y-114168095D01*
X138330476Y-114072857D01*
X138378095Y-113977619D01*
X138425714Y-113930000D01*
X138520952Y-113882380D01*
X138759047Y-113882380D01*
X138901904Y-113930000D01*
X139330476Y-114882380D02*
X139330476Y-113882380D01*
X139568571Y-113882380D01*
X139711428Y-113930000D01*
X139806666Y-114025238D01*
X139854285Y-114120476D01*
X139901904Y-114310952D01*
X139901904Y-114453809D01*
X139854285Y-114644285D01*
X139806666Y-114739523D01*
X139711428Y-114834761D01*
X139568571Y-114882380D01*
X139330476Y-114882380D01*
X140282857Y-114596666D02*
X140759047Y-114596666D01*
X140187619Y-114882380D02*
X140520952Y-113882380D01*
X140854285Y-114882380D01*
X126595238Y-101202380D02*
X126595238Y-102011904D01*
X126642857Y-102107142D01*
X126690476Y-102154761D01*
X126785714Y-102202380D01*
X126976190Y-102202380D01*
X127071428Y-102154761D01*
X127119047Y-102107142D01*
X127166666Y-102011904D01*
X127166666Y-101202380D01*
X127500000Y-101202380D02*
X127833333Y-102202380D01*
X128166666Y-101202380D01*
X128976190Y-102202380D02*
X128500000Y-102202380D01*
X128500000Y-101202380D01*
X129500000Y-101202380D02*
X129690476Y-101202380D01*
X129785714Y-101250000D01*
X129880952Y-101345238D01*
X129928571Y-101535714D01*
X129928571Y-101869047D01*
X129880952Y-102059523D01*
X129785714Y-102154761D01*
X129690476Y-102202380D01*
X129500000Y-102202380D01*
X129404761Y-102154761D01*
X129309523Y-102059523D01*
X129261904Y-101869047D01*
X129261904Y-101535714D01*
X129309523Y-101345238D01*
X129404761Y-101250000D01*
X129500000Y-101202380D01*
X131119047Y-102202380D02*
X131119047Y-101202380D01*
X131595238Y-102202380D02*
X131595238Y-101202380D01*
X132166666Y-102202380D01*
X132166666Y-101202380D01*
X132642857Y-101821428D02*
X133404761Y-101821428D01*
X171617142Y-133442380D02*
X171950476Y-134442380D01*
X172283809Y-133442380D01*
X172950476Y-133918571D02*
X173093333Y-133966190D01*
X173140952Y-134013809D01*
X173188571Y-134109047D01*
X173188571Y-134251904D01*
X173140952Y-134347142D01*
X173093333Y-134394761D01*
X172998095Y-134442380D01*
X172617142Y-134442380D01*
X172617142Y-133442380D01*
X172950476Y-133442380D01*
X173045714Y-133490000D01*
X173093333Y-133537619D01*
X173140952Y-133632857D01*
X173140952Y-133728095D01*
X173093333Y-133823333D01*
X173045714Y-133870952D01*
X172950476Y-133918571D01*
X172617142Y-133918571D01*
X173569523Y-134156666D02*
X174045714Y-134156666D01*
X173474285Y-134442380D02*
X173807619Y-133442380D01*
X174140952Y-134442380D01*
X174331428Y-133442380D02*
X174902857Y-133442380D01*
X174617142Y-134442380D02*
X174617142Y-133442380D01*
X136388571Y-108612380D02*
X135912380Y-108612380D01*
X135912380Y-107612380D01*
X136674285Y-108564761D02*
X136817142Y-108612380D01*
X137055238Y-108612380D01*
X137150476Y-108564761D01*
X137198095Y-108517142D01*
X137245714Y-108421904D01*
X137245714Y-108326666D01*
X137198095Y-108231428D01*
X137150476Y-108183809D01*
X137055238Y-108136190D01*
X136864761Y-108088571D01*
X136769523Y-108040952D01*
X136721904Y-107993333D01*
X136674285Y-107898095D01*
X136674285Y-107802857D01*
X136721904Y-107707619D01*
X136769523Y-107660000D01*
X136864761Y-107612380D01*
X137102857Y-107612380D01*
X137245714Y-107660000D01*
X138245714Y-108517142D02*
X138198095Y-108564761D01*
X138055238Y-108612380D01*
X137960000Y-108612380D01*
X137817142Y-108564761D01*
X137721904Y-108469523D01*
X137674285Y-108374285D01*
X137626666Y-108183809D01*
X137626666Y-108040952D01*
X137674285Y-107850476D01*
X137721904Y-107755238D01*
X137817142Y-107660000D01*
X137960000Y-107612380D01*
X138055238Y-107612380D01*
X138198095Y-107660000D01*
X138245714Y-107707619D01*
X139150476Y-108612380D02*
X138674285Y-108612380D01*
X138674285Y-107612380D01*
X126276190Y-89742380D02*
X126609523Y-90742380D01*
X126942857Y-89742380D01*
X127609523Y-90218571D02*
X127752380Y-90266190D01*
X127800000Y-90313809D01*
X127847619Y-90409047D01*
X127847619Y-90551904D01*
X127800000Y-90647142D01*
X127752380Y-90694761D01*
X127657142Y-90742380D01*
X127276190Y-90742380D01*
X127276190Y-89742380D01*
X127609523Y-89742380D01*
X127704761Y-89790000D01*
X127752380Y-89837619D01*
X127800000Y-89932857D01*
X127800000Y-90028095D01*
X127752380Y-90123333D01*
X127704761Y-90170952D01*
X127609523Y-90218571D01*
X127276190Y-90218571D01*
X128228571Y-90456666D02*
X128704761Y-90456666D01*
X128133333Y-90742380D02*
X128466666Y-89742380D01*
X128800000Y-90742380D01*
X128990476Y-89742380D02*
X129561904Y-89742380D01*
X129276190Y-90742380D02*
X129276190Y-89742380D01*
X129895238Y-90742380D02*
X129895238Y-89742380D01*
X130276190Y-89742380D01*
X130371428Y-89790000D01*
X130419047Y-89837619D01*
X130466666Y-89932857D01*
X130466666Y-90075714D01*
X130419047Y-90170952D01*
X130371428Y-90218571D01*
X130276190Y-90266190D01*
X129895238Y-90266190D01*
X131466666Y-90742380D02*
X131133333Y-90266190D01*
X130895238Y-90742380D02*
X130895238Y-89742380D01*
X131276190Y-89742380D01*
X131371428Y-89790000D01*
X131419047Y-89837619D01*
X131466666Y-89932857D01*
X131466666Y-90075714D01*
X131419047Y-90170952D01*
X131371428Y-90218571D01*
X131276190Y-90266190D01*
X130895238Y-90266190D01*
X131752380Y-89742380D02*
X132323809Y-89742380D01*
X132038095Y-90742380D02*
X132038095Y-89742380D01*
X133228571Y-90647142D02*
X133180952Y-90694761D01*
X133038095Y-90742380D01*
X132942857Y-90742380D01*
X132800000Y-90694761D01*
X132704761Y-90599523D01*
X132657142Y-90504285D01*
X132609523Y-90313809D01*
X132609523Y-90170952D01*
X132657142Y-89980476D01*
X132704761Y-89885238D01*
X132800000Y-89790000D01*
X132942857Y-89742380D01*
X133038095Y-89742380D01*
X133180952Y-89790000D01*
X133228571Y-89837619D01*
X133657142Y-90742380D02*
X133657142Y-89742380D01*
X133895238Y-89742380D01*
X134038095Y-89790000D01*
X134133333Y-89885238D01*
X134180952Y-89980476D01*
X134228571Y-90170952D01*
X134228571Y-90313809D01*
X134180952Y-90504285D01*
X134133333Y-90599523D01*
X134038095Y-90694761D01*
X133895238Y-90742380D01*
X133657142Y-90742380D01*
X127105238Y-94622380D02*
X127105238Y-95431904D01*
X127152857Y-95527142D01*
X127200476Y-95574761D01*
X127295714Y-95622380D01*
X127486190Y-95622380D01*
X127581428Y-95574761D01*
X127629047Y-95527142D01*
X127676666Y-95431904D01*
X127676666Y-94622380D01*
X128010000Y-94622380D02*
X128343333Y-95622380D01*
X128676666Y-94622380D01*
X129486190Y-95622380D02*
X129010000Y-95622380D01*
X129010000Y-94622380D01*
X130010000Y-94622380D02*
X130200476Y-94622380D01*
X130295714Y-94670000D01*
X130390952Y-94765238D01*
X130438571Y-94955714D01*
X130438571Y-95289047D01*
X130390952Y-95479523D01*
X130295714Y-95574761D01*
X130200476Y-95622380D01*
X130010000Y-95622380D01*
X129914761Y-95574761D01*
X129819523Y-95479523D01*
X129771904Y-95289047D01*
X129771904Y-94955714D01*
X129819523Y-94765238D01*
X129914761Y-94670000D01*
X130010000Y-94622380D01*
X131629047Y-95622380D02*
X131629047Y-94622380D01*
X132105238Y-95622380D02*
X132105238Y-94622380D01*
X132676666Y-95622380D01*
X132676666Y-94622380D01*
X133152857Y-95241428D02*
X133914761Y-95241428D01*
X133533809Y-95622380D02*
X133533809Y-94860476D01*
X111688666Y-89339380D02*
X111688666Y-90053666D01*
X111641047Y-90196523D01*
X111545809Y-90291761D01*
X111402952Y-90339380D01*
X111307714Y-90339380D01*
X112164857Y-90339380D02*
X112164857Y-89339380D01*
X112545809Y-89339380D01*
X112641047Y-89387000D01*
X112688666Y-89434619D01*
X112736285Y-89529857D01*
X112736285Y-89672714D01*
X112688666Y-89767952D01*
X112641047Y-89815571D01*
X112545809Y-89863190D01*
X112164857Y-89863190D01*
X113688666Y-90339380D02*
X113117238Y-90339380D01*
X113402952Y-90339380D02*
X113402952Y-89339380D01*
X113307714Y-89482238D01*
X113212476Y-89577476D01*
X113117238Y-89625095D01*
X115772380Y-106941904D02*
X116581904Y-106941904D01*
X116677142Y-106894285D01*
X116724761Y-106846666D01*
X116772380Y-106751428D01*
X116772380Y-106560952D01*
X116724761Y-106465714D01*
X116677142Y-106418095D01*
X116581904Y-106370476D01*
X115772380Y-106370476D01*
X115772380Y-105989523D02*
X115772380Y-105370476D01*
X116153333Y-105703809D01*
X116153333Y-105560952D01*
X116200952Y-105465714D01*
X116248571Y-105418095D01*
X116343809Y-105370476D01*
X116581904Y-105370476D01*
X116677142Y-105418095D01*
X116724761Y-105465714D01*
X116772380Y-105560952D01*
X116772380Y-105846666D01*
X116724761Y-105941904D01*
X116677142Y-105989523D01*
X172729380Y-110061333D02*
X173443666Y-110061333D01*
X173586523Y-110108952D01*
X173681761Y-110204190D01*
X173729380Y-110347047D01*
X173729380Y-110442285D01*
X173157952Y-109442285D02*
X173110333Y-109537523D01*
X173062714Y-109585142D01*
X172967476Y-109632761D01*
X172919857Y-109632761D01*
X172824619Y-109585142D01*
X172777000Y-109537523D01*
X172729380Y-109442285D01*
X172729380Y-109251809D01*
X172777000Y-109156571D01*
X172824619Y-109108952D01*
X172919857Y-109061333D01*
X172967476Y-109061333D01*
X173062714Y-109108952D01*
X173110333Y-109156571D01*
X173157952Y-109251809D01*
X173157952Y-109442285D01*
X173205571Y-109537523D01*
X173253190Y-109585142D01*
X173348428Y-109632761D01*
X173538904Y-109632761D01*
X173634142Y-109585142D01*
X173681761Y-109537523D01*
X173729380Y-109442285D01*
X173729380Y-109251809D01*
X173681761Y-109156571D01*
X173634142Y-109108952D01*
X173538904Y-109061333D01*
X173348428Y-109061333D01*
X173253190Y-109108952D01*
X173205571Y-109156571D01*
X173157952Y-109251809D01*
X128214285Y-156428571D02*
X128357142Y-156476190D01*
X128404761Y-156523809D01*
X128452380Y-156619047D01*
X128452380Y-156761904D01*
X128404761Y-156857142D01*
X128357142Y-156904761D01*
X128261904Y-156952380D01*
X127880952Y-156952380D01*
X127880952Y-155952380D01*
X128214285Y-155952380D01*
X128309523Y-156000000D01*
X128357142Y-156047619D01*
X128404761Y-156142857D01*
X128404761Y-156238095D01*
X128357142Y-156333333D01*
X128309523Y-156380952D01*
X128214285Y-156428571D01*
X127880952Y-156428571D01*
X128738095Y-155952380D02*
X129309523Y-155952380D01*
X129023809Y-156952380D02*
X129023809Y-155952380D01*
X130166666Y-156952380D02*
X129595238Y-156952380D01*
X129880952Y-156952380D02*
X129880952Y-155952380D01*
X129785714Y-156095238D01*
X129690476Y-156190476D01*
X129595238Y-156238095D01*
X149172380Y-112013904D02*
X149981904Y-112013904D01*
X150077142Y-111966285D01*
X150124761Y-111918666D01*
X150172380Y-111823428D01*
X150172380Y-111632952D01*
X150124761Y-111537714D01*
X150077142Y-111490095D01*
X149981904Y-111442476D01*
X149172380Y-111442476D01*
X149172380Y-111061523D02*
X149172380Y-110394857D01*
X150172380Y-110823428D01*
X171847380Y-79360333D02*
X172561666Y-79360333D01*
X172704523Y-79407952D01*
X172799761Y-79503190D01*
X172847380Y-79646047D01*
X172847380Y-79741285D01*
X171942619Y-78931761D02*
X171895000Y-78884142D01*
X171847380Y-78788904D01*
X171847380Y-78550809D01*
X171895000Y-78455571D01*
X171942619Y-78407952D01*
X172037857Y-78360333D01*
X172133095Y-78360333D01*
X172275952Y-78407952D01*
X172847380Y-78979380D01*
X172847380Y-78360333D01*
D11*
X144274523Y-111497619D02*
X145302619Y-111497619D01*
X145423571Y-111437142D01*
X145484047Y-111376666D01*
X145544523Y-111255714D01*
X145544523Y-111013809D01*
X145484047Y-110892857D01*
X145423571Y-110832380D01*
X145302619Y-110771904D01*
X144274523Y-110771904D01*
X144274523Y-109562380D02*
X144274523Y-110167142D01*
X144879285Y-110227619D01*
X144818809Y-110167142D01*
X144758333Y-110046190D01*
X144758333Y-109743809D01*
X144818809Y-109622857D01*
X144879285Y-109562380D01*
X145000238Y-109501904D01*
X145302619Y-109501904D01*
X145423571Y-109562380D01*
X145484047Y-109622857D01*
X145544523Y-109743809D01*
X145544523Y-110046190D01*
X145484047Y-110167142D01*
X145423571Y-110227619D01*
D10*
X117840380Y-97512095D02*
X116840380Y-97512095D01*
X116840380Y-97274000D01*
X116888000Y-97131142D01*
X116983238Y-97035904D01*
X117078476Y-96988285D01*
X117268952Y-96940666D01*
X117411809Y-96940666D01*
X117602285Y-96988285D01*
X117697523Y-97035904D01*
X117792761Y-97131142D01*
X117840380Y-97274000D01*
X117840380Y-97512095D01*
X117173714Y-96083523D02*
X117840380Y-96083523D01*
X116792761Y-96321619D02*
X117507047Y-96559714D01*
X117507047Y-95940666D01*
X124364761Y-94159619D02*
X124269523Y-94112000D01*
X124174285Y-94016761D01*
X124031428Y-93873904D01*
X123936190Y-93826285D01*
X123840952Y-93826285D01*
X123888571Y-94064380D02*
X123793333Y-94016761D01*
X123698095Y-93921523D01*
X123650476Y-93731047D01*
X123650476Y-93397714D01*
X123698095Y-93207238D01*
X123793333Y-93112000D01*
X123888571Y-93064380D01*
X124079047Y-93064380D01*
X124174285Y-93112000D01*
X124269523Y-93207238D01*
X124317142Y-93397714D01*
X124317142Y-93731047D01*
X124269523Y-93921523D01*
X124174285Y-94016761D01*
X124079047Y-94064380D01*
X123888571Y-94064380D01*
X124650476Y-93064380D02*
X125269523Y-93064380D01*
X124936190Y-93445333D01*
X125079047Y-93445333D01*
X125174285Y-93492952D01*
X125221904Y-93540571D01*
X125269523Y-93635809D01*
X125269523Y-93873904D01*
X125221904Y-93969142D01*
X125174285Y-94016761D01*
X125079047Y-94064380D01*
X124793333Y-94064380D01*
X124698095Y-94016761D01*
X124650476Y-93969142D01*
D11*
X163214523Y-104869761D02*
X161944523Y-104869761D01*
X163093571Y-103539285D02*
X163154047Y-103599761D01*
X163214523Y-103781190D01*
X163214523Y-103902142D01*
X163154047Y-104083571D01*
X163033095Y-104204523D01*
X162912142Y-104265000D01*
X162670238Y-104325476D01*
X162488809Y-104325476D01*
X162246904Y-104265000D01*
X162125952Y-104204523D01*
X162005000Y-104083571D01*
X161944523Y-103902142D01*
X161944523Y-103781190D01*
X162005000Y-103599761D01*
X162065476Y-103539285D01*
X163214523Y-102329761D02*
X163214523Y-103055476D01*
X163214523Y-102692619D02*
X161944523Y-102692619D01*
X162125952Y-102813571D01*
X162246904Y-102934523D01*
X162307380Y-103055476D01*
D10*
X142240095Y-96128380D02*
X142240095Y-96937904D01*
X142287714Y-97033142D01*
X142335333Y-97080761D01*
X142430571Y-97128380D01*
X142621047Y-97128380D01*
X142716285Y-97080761D01*
X142763904Y-97033142D01*
X142811523Y-96937904D01*
X142811523Y-96128380D01*
X143716285Y-96461714D02*
X143716285Y-97128380D01*
X143478190Y-96080761D02*
X143240095Y-96795047D01*
X143859142Y-96795047D01*
X171407380Y-69200333D02*
X172121666Y-69200333D01*
X172264523Y-69247952D01*
X172359761Y-69343190D01*
X172407380Y-69486047D01*
X172407380Y-69581285D01*
X172407380Y-68200333D02*
X172407380Y-68771761D01*
X172407380Y-68486047D02*
X171407380Y-68486047D01*
X171550238Y-68581285D01*
X171645476Y-68676523D01*
X171693095Y-68771761D01*
X123142476Y-82715380D02*
X123142476Y-83429666D01*
X123094857Y-83572523D01*
X122999619Y-83667761D01*
X122856761Y-83715380D01*
X122761523Y-83715380D01*
X124142476Y-83715380D02*
X123571047Y-83715380D01*
X123856761Y-83715380D02*
X123856761Y-82715380D01*
X123761523Y-82858238D01*
X123666285Y-82953476D01*
X123571047Y-83001095D01*
X124761523Y-82715380D02*
X124856761Y-82715380D01*
X124952000Y-82763000D01*
X124999619Y-82810619D01*
X125047238Y-82905857D01*
X125094857Y-83096333D01*
X125094857Y-83334428D01*
X125047238Y-83524904D01*
X124999619Y-83620142D01*
X124952000Y-83667761D01*
X124856761Y-83715380D01*
X124761523Y-83715380D01*
X124666285Y-83667761D01*
X124618666Y-83620142D01*
X124571047Y-83524904D01*
X124523428Y-83334428D01*
X124523428Y-83096333D01*
X124571047Y-82905857D01*
X124618666Y-82810619D01*
X124666285Y-82763000D01*
X124761523Y-82715380D01*
X131556666Y-106942380D02*
X131556666Y-107656666D01*
X131509047Y-107799523D01*
X131413809Y-107894761D01*
X131270952Y-107942380D01*
X131175714Y-107942380D01*
X132080476Y-107942380D02*
X132270952Y-107942380D01*
X132366190Y-107894761D01*
X132413809Y-107847142D01*
X132509047Y-107704285D01*
X132556666Y-107513809D01*
X132556666Y-107132857D01*
X132509047Y-107037619D01*
X132461428Y-106990000D01*
X132366190Y-106942380D01*
X132175714Y-106942380D01*
X132080476Y-106990000D01*
X132032857Y-107037619D01*
X131985238Y-107132857D01*
X131985238Y-107370952D01*
X132032857Y-107466190D01*
X132080476Y-107513809D01*
X132175714Y-107561428D01*
X132366190Y-107561428D01*
X132461428Y-107513809D01*
X132509047Y-107466190D01*
X132556666Y-107370952D01*
X103002095Y-96930380D02*
X103002095Y-97739904D01*
X103049714Y-97835142D01*
X103097333Y-97882761D01*
X103192571Y-97930380D01*
X103383047Y-97930380D01*
X103478285Y-97882761D01*
X103525904Y-97835142D01*
X103573523Y-97739904D01*
X103573523Y-96930380D01*
X104002095Y-97025619D02*
X104049714Y-96978000D01*
X104144952Y-96930380D01*
X104383047Y-96930380D01*
X104478285Y-96978000D01*
X104525904Y-97025619D01*
X104573523Y-97120857D01*
X104573523Y-97216095D01*
X104525904Y-97358952D01*
X103954476Y-97930380D01*
X104573523Y-97930380D01*
X99822095Y-89212380D02*
X99822095Y-90021904D01*
X99869714Y-90117142D01*
X99917333Y-90164761D01*
X100012571Y-90212380D01*
X100203047Y-90212380D01*
X100298285Y-90164761D01*
X100345904Y-90117142D01*
X100393523Y-90021904D01*
X100393523Y-89212380D01*
X101393523Y-90212380D02*
X100822095Y-90212380D01*
X101107809Y-90212380D02*
X101107809Y-89212380D01*
X101012571Y-89355238D01*
X100917333Y-89450476D01*
X100822095Y-89498095D01*
X171407380Y-130160333D02*
X172121666Y-130160333D01*
X172264523Y-130207952D01*
X172359761Y-130303190D01*
X172407380Y-130446047D01*
X172407380Y-130541285D01*
X171740714Y-129255571D02*
X172407380Y-129255571D01*
X171359761Y-129493666D02*
X172074047Y-129731761D01*
X172074047Y-129112714D01*
D11*
X152140238Y-95574523D02*
X152140238Y-94304523D01*
X153470714Y-95453571D02*
X153410238Y-95514047D01*
X153228809Y-95574523D01*
X153107857Y-95574523D01*
X152926428Y-95514047D01*
X152805476Y-95393095D01*
X152745000Y-95272142D01*
X152684523Y-95030238D01*
X152684523Y-94848809D01*
X152745000Y-94606904D01*
X152805476Y-94485952D01*
X152926428Y-94365000D01*
X153107857Y-94304523D01*
X153228809Y-94304523D01*
X153410238Y-94365000D01*
X153470714Y-94425476D01*
X153954523Y-94425476D02*
X154015000Y-94365000D01*
X154135952Y-94304523D01*
X154438333Y-94304523D01*
X154559285Y-94365000D01*
X154619761Y-94425476D01*
X154680238Y-94546428D01*
X154680238Y-94667380D01*
X154619761Y-94848809D01*
X153894047Y-95574523D01*
X154680238Y-95574523D01*
D10*
X171847380Y-120000333D02*
X172561666Y-120000333D01*
X172704523Y-120047952D01*
X172799761Y-120143190D01*
X172847380Y-120286047D01*
X172847380Y-120381285D01*
X171847380Y-119619380D02*
X171847380Y-119000333D01*
X172228333Y-119333666D01*
X172228333Y-119190809D01*
X172275952Y-119095571D01*
X172323571Y-119047952D01*
X172418809Y-119000333D01*
X172656904Y-119000333D01*
X172752142Y-119047952D01*
X172799761Y-119095571D01*
X172847380Y-119190809D01*
X172847380Y-119476523D01*
X172799761Y-119571761D01*
X172752142Y-119619380D01*
X155781904Y-88252380D02*
X155781904Y-87252380D01*
X156020000Y-87252380D01*
X156162857Y-87300000D01*
X156258095Y-87395238D01*
X156305714Y-87490476D01*
X156353333Y-87680952D01*
X156353333Y-87823809D01*
X156305714Y-88014285D01*
X156258095Y-88109523D01*
X156162857Y-88204761D01*
X156020000Y-88252380D01*
X155781904Y-88252380D01*
X157305714Y-88252380D02*
X156734285Y-88252380D01*
X157020000Y-88252380D02*
X157020000Y-87252380D01*
X156924761Y-87395238D01*
X156829523Y-87490476D01*
X156734285Y-87538095D01*
X169717380Y-98581583D02*
X170431666Y-98581583D01*
X170574523Y-98629202D01*
X170669761Y-98724440D01*
X170717380Y-98867297D01*
X170717380Y-98962535D01*
X169717380Y-97629202D02*
X169717380Y-98105392D01*
X170193571Y-98153011D01*
X170145952Y-98105392D01*
X170098333Y-98010154D01*
X170098333Y-97772059D01*
X170145952Y-97676821D01*
X170193571Y-97629202D01*
X170288809Y-97581583D01*
X170526904Y-97581583D01*
X170622142Y-97629202D01*
X170669761Y-97676821D01*
X170717380Y-97772059D01*
X170717380Y-98010154D01*
X170669761Y-98105392D01*
X170622142Y-98153011D01*
X116586095Y-85174380D02*
X116586095Y-85983904D01*
X116633714Y-86079142D01*
X116681333Y-86126761D01*
X116776571Y-86174380D01*
X116967047Y-86174380D01*
X117062285Y-86126761D01*
X117109904Y-86079142D01*
X117157523Y-85983904D01*
X117157523Y-85174380D01*
X118062285Y-85174380D02*
X117871809Y-85174380D01*
X117776571Y-85222000D01*
X117728952Y-85269619D01*
X117633714Y-85412476D01*
X117586095Y-85602952D01*
X117586095Y-85983904D01*
X117633714Y-86079142D01*
X117681333Y-86126761D01*
X117776571Y-86174380D01*
X117967047Y-86174380D01*
X118062285Y-86126761D01*
X118109904Y-86079142D01*
X118157523Y-85983904D01*
X118157523Y-85745809D01*
X118109904Y-85650571D01*
X118062285Y-85602952D01*
X117967047Y-85555333D01*
X117776571Y-85555333D01*
X117681333Y-85602952D01*
X117633714Y-85650571D01*
X117586095Y-85745809D01*
X172537619Y-114275238D02*
X172490000Y-114370476D01*
X172394761Y-114465714D01*
X172251904Y-114608571D01*
X172204285Y-114703809D01*
X172204285Y-114799047D01*
X172442380Y-114751428D02*
X172394761Y-114846666D01*
X172299523Y-114941904D01*
X172109047Y-114989523D01*
X171775714Y-114989523D01*
X171585238Y-114941904D01*
X171490000Y-114846666D01*
X171442380Y-114751428D01*
X171442380Y-114560952D01*
X171490000Y-114465714D01*
X171585238Y-114370476D01*
X171775714Y-114322857D01*
X172109047Y-114322857D01*
X172299523Y-114370476D01*
X172394761Y-114465714D01*
X172442380Y-114560952D01*
X172442380Y-114751428D01*
X171537619Y-113941904D02*
X171490000Y-113894285D01*
X171442380Y-113799047D01*
X171442380Y-113560952D01*
X171490000Y-113465714D01*
X171537619Y-113418095D01*
X171632857Y-113370476D01*
X171728095Y-113370476D01*
X171870952Y-113418095D01*
X172442380Y-113989523D01*
X172442380Y-113370476D01*
X88006666Y-84512380D02*
X88006666Y-85226666D01*
X87959047Y-85369523D01*
X87863809Y-85464761D01*
X87720952Y-85512380D01*
X87625714Y-85512380D01*
X88911428Y-84512380D02*
X88720952Y-84512380D01*
X88625714Y-84560000D01*
X88578095Y-84607619D01*
X88482857Y-84750476D01*
X88435238Y-84940952D01*
X88435238Y-85321904D01*
X88482857Y-85417142D01*
X88530476Y-85464761D01*
X88625714Y-85512380D01*
X88816190Y-85512380D01*
X88911428Y-85464761D01*
X88959047Y-85417142D01*
X89006666Y-85321904D01*
X89006666Y-85083809D01*
X88959047Y-84988571D01*
X88911428Y-84940952D01*
X88816190Y-84893333D01*
X88625714Y-84893333D01*
X88530476Y-84940952D01*
X88482857Y-84988571D01*
X88435238Y-85083809D01*
X111688666Y-100246380D02*
X111688666Y-100960666D01*
X111641047Y-101103523D01*
X111545809Y-101198761D01*
X111402952Y-101246380D01*
X111307714Y-101246380D01*
X112164857Y-101246380D02*
X112164857Y-100246380D01*
X112545809Y-100246380D01*
X112641047Y-100294000D01*
X112688666Y-100341619D01*
X112736285Y-100436857D01*
X112736285Y-100579714D01*
X112688666Y-100674952D01*
X112641047Y-100722571D01*
X112545809Y-100770190D01*
X112164857Y-100770190D01*
X113117238Y-100341619D02*
X113164857Y-100294000D01*
X113260095Y-100246380D01*
X113498190Y-100246380D01*
X113593428Y-100294000D01*
X113641047Y-100341619D01*
X113688666Y-100436857D01*
X113688666Y-100532095D01*
X113641047Y-100674952D01*
X113069619Y-101246380D01*
X113688666Y-101246380D01*
G36*
X155355742Y-73731733D02*
G01*
X155386089Y-73629090D01*
X155435183Y-73530723D01*
X155462723Y-73484808D01*
X155611529Y-73302124D01*
X155777920Y-73170145D01*
X155878802Y-73111746D01*
X155967385Y-73075816D01*
X156068621Y-73056970D01*
X156207465Y-73049822D01*
X156339784Y-73048896D01*
X156519945Y-73051138D01*
X156643731Y-73061119D01*
X156734718Y-73083719D01*
X156816480Y-73123819D01*
X156872130Y-73159114D01*
X157038049Y-73309772D01*
X157151633Y-73510360D01*
X157216512Y-73768158D01*
X157228426Y-73873747D01*
X157251602Y-74150631D01*
X156465801Y-74150631D01*
X156189782Y-74150569D01*
X155984627Y-74152498D01*
X155841209Y-74159592D01*
X155750401Y-74175023D01*
X155703076Y-74201964D01*
X155690107Y-74243590D01*
X155702366Y-74303072D01*
X155730728Y-74383585D01*
X155737952Y-74403678D01*
X155844448Y-74609246D01*
X155995331Y-74750807D01*
X156191539Y-74828528D01*
X156434011Y-74842576D01*
X156723687Y-74793119D01*
X157061503Y-74680326D01*
X157130000Y-74652257D01*
X157171557Y-74644477D01*
X157192516Y-74677527D01*
X157199571Y-74767745D01*
X157200000Y-74823067D01*
X157196614Y-74943209D01*
X157174672Y-75011438D01*
X157116493Y-75055964D01*
X157030000Y-75094301D01*
X156880043Y-75136885D01*
X156681819Y-75166169D01*
X156461558Y-75181107D01*
X156245494Y-75180653D01*
X156059856Y-75163763D01*
X155949918Y-75137356D01*
X155704706Y-75006604D01*
X155514796Y-74818610D01*
X155410556Y-74642017D01*
X155362396Y-74527042D01*
X155334272Y-74424510D01*
X155322453Y-74308002D01*
X155323206Y-74151098D01*
X155327055Y-74050976D01*
X155337715Y-73870190D01*
X155687489Y-73870190D01*
X156840000Y-73870190D01*
X156840000Y-73766198D01*
X156805384Y-73614792D01*
X156715677Y-73477378D01*
X156592092Y-73386176D01*
X156588923Y-73384837D01*
X156432651Y-73348158D01*
X156246298Y-73343380D01*
X156073211Y-73370599D01*
X156033930Y-73383618D01*
X155927932Y-73454136D01*
X155821110Y-73570546D01*
X155738094Y-73702775D01*
X155709251Y-73780048D01*
X155687489Y-73870190D01*
X155337715Y-73870190D01*
X155338084Y-73863934D01*
X155355742Y-73731733D01*
G37*
G36*
X165207466Y-73020897D02*
G01*
X165313305Y-72746950D01*
X165459449Y-72537481D01*
X165640000Y-72398044D01*
X165745199Y-72348290D01*
X165845613Y-72320956D01*
X165969438Y-72311376D01*
X166142979Y-72314807D01*
X166321251Y-72326293D01*
X166446996Y-72348161D01*
X166547605Y-72387236D01*
X166629039Y-72435891D01*
X166799202Y-72596271D01*
X166930034Y-72824368D01*
X167020662Y-73117641D01*
X167070213Y-73473549D01*
X167080000Y-73750000D01*
X167058874Y-74147042D01*
X166996079Y-74483176D01*
X166892487Y-74755863D01*
X166748970Y-74962560D01*
X166629039Y-75064110D01*
X166528753Y-75122016D01*
X166425408Y-75157217D01*
X166291610Y-75176537D01*
X166142979Y-75185194D01*
X165968135Y-75188604D01*
X165844646Y-75178884D01*
X165744315Y-75151369D01*
X165640000Y-75101957D01*
X165455617Y-74958421D01*
X165310394Y-74747424D01*
X165205502Y-74472020D01*
X165142114Y-74135266D01*
X165121389Y-73750000D01*
X165126662Y-73654391D01*
X165533202Y-73654391D01*
X165536383Y-73942334D01*
X165563548Y-74209205D01*
X165612489Y-74440754D01*
X165680994Y-74622729D01*
X165766855Y-74740878D01*
X165770942Y-74744342D01*
X165929153Y-74826829D01*
X166113616Y-74848890D01*
X166297534Y-74810074D01*
X166400000Y-74754911D01*
X166493993Y-74663708D01*
X166553723Y-74574486D01*
X166603472Y-74425466D01*
X166640942Y-74217801D01*
X166663988Y-73972330D01*
X166670466Y-73709889D01*
X166663026Y-73512425D01*
X166627315Y-73208742D01*
X166564332Y-72976534D01*
X166470825Y-72810846D01*
X166343539Y-72706723D01*
X166179221Y-72659210D01*
X166100000Y-72654943D01*
X165923550Y-72676985D01*
X165786916Y-72747880D01*
X165684578Y-72874778D01*
X165611018Y-73064831D01*
X165560718Y-73325189D01*
X165556217Y-73359628D01*
X165533202Y-73654391D01*
X165126662Y-73654391D01*
X165143103Y-73356265D01*
X165207466Y-73020897D01*
G37*
G36*
X153514031Y-72347792D02*
G01*
X153792433Y-72350718D01*
X154006040Y-72361390D01*
X154169906Y-72382648D01*
X154299084Y-72417330D01*
X154408629Y-72468278D01*
X154510042Y-72535680D01*
X154656370Y-72682688D01*
X154740208Y-72865391D01*
X154767442Y-73096799D01*
X154767446Y-73104733D01*
X154750614Y-73332245D01*
X154693532Y-73511458D01*
X154584402Y-73665058D01*
X154411427Y-73815730D01*
X154389035Y-73832337D01*
X154238070Y-73943007D01*
X154710779Y-74497529D01*
X154863893Y-74677893D01*
X154999766Y-74839366D01*
X155109485Y-74971240D01*
X155184135Y-75062809D01*
X155214105Y-75102130D01*
X155211763Y-75130373D01*
X155154264Y-75146179D01*
X155030614Y-75152016D01*
X154991211Y-75152209D01*
X154737701Y-75152209D01*
X154278850Y-74593433D01*
X153820000Y-74034657D01*
X153570000Y-74032549D01*
X153320000Y-74030442D01*
X153320000Y-75152209D01*
X152920000Y-75152209D01*
X152920000Y-73721758D01*
X153320000Y-73721758D01*
X153664855Y-73695209D01*
X153867936Y-73671703D01*
X154030330Y-73637360D01*
X154124208Y-73600917D01*
X154248269Y-73488673D01*
X154325418Y-73339426D01*
X154355299Y-73172781D01*
X154337553Y-73008343D01*
X154271823Y-72865717D01*
X154157752Y-72764510D01*
X154139636Y-72755547D01*
X154051644Y-72730605D01*
X153909497Y-72706280D01*
X153738965Y-72686684D01*
X153676636Y-72681653D01*
X153320000Y-72656299D01*
X153320000Y-73721758D01*
X152920000Y-73721758D01*
X152920000Y-72347792D01*
X153514031Y-72347792D01*
G37*
G36*
X158229793Y-73874070D02*
G01*
X158545506Y-74679213D01*
X158737678Y-74184559D01*
X158823340Y-73963632D01*
X158911506Y-73735520D01*
X158991373Y-73528210D01*
X159048427Y-73379417D01*
X159167002Y-73068928D01*
X159363501Y-73068928D01*
X159476101Y-73074417D01*
X159546456Y-73088429D01*
X159558492Y-73098975D01*
X159543492Y-73142593D01*
X159501955Y-73250368D01*
X159437837Y-73412378D01*
X159355095Y-73618702D01*
X159257685Y-73859420D01*
X159149562Y-74124610D01*
X159147111Y-74130600D01*
X158737238Y-75132177D01*
X158537969Y-75143962D01*
X158338699Y-75155746D01*
X157929036Y-74142384D01*
X157821368Y-73874965D01*
X157724310Y-73631811D01*
X157641740Y-73422805D01*
X157577533Y-73257831D01*
X157535569Y-73146771D01*
X157519723Y-73099507D01*
X157519686Y-73098975D01*
X157555837Y-73081720D01*
X157647784Y-73070854D01*
X157717040Y-73068928D01*
X157914080Y-73068928D01*
X158229793Y-73874070D01*
G37*
G36*
X162520000Y-74871767D02*
G01*
X163080000Y-74871767D01*
X163080000Y-75152209D01*
X161560000Y-75152209D01*
X161560000Y-74871767D01*
X162120000Y-74871767D01*
X162120000Y-72988802D01*
X161560000Y-72988802D01*
X161560000Y-72872899D01*
X161581372Y-72775195D01*
X161653579Y-72723306D01*
X161785257Y-72708360D01*
X161934141Y-72677810D01*
X162067794Y-72598580D01*
X162156949Y-72489300D01*
X162166888Y-72465412D01*
X162204777Y-72387602D01*
X162264605Y-72354376D01*
X162363913Y-72347792D01*
X162520000Y-72347792D01*
X162520000Y-74871767D01*
G37*
G36*
X164440000Y-75152209D02*
G01*
X163920000Y-75152209D01*
X163920000Y-74631388D01*
X164440000Y-74631388D01*
X164440000Y-75152209D01*
G37*
G36*
X107190000Y-72458360D02*
G01*
X106750000Y-72458360D01*
X106750000Y-72097792D01*
X107190000Y-72097792D01*
X107190000Y-72458360D01*
G37*
G36*
X91030000Y-72458360D02*
G01*
X90590000Y-72458360D01*
X90590000Y-72097792D01*
X91030000Y-72097792D01*
X91030000Y-72458360D01*
G37*
G36*
X118150000Y-72418297D02*
G01*
X117150000Y-72418297D01*
X117150000Y-74902209D01*
X116710000Y-74902209D01*
X116710000Y-72418297D01*
X115750000Y-72418297D01*
X115750000Y-72097792D01*
X118150000Y-72097792D01*
X118150000Y-72418297D01*
G37*
G36*
X113966353Y-73287506D02*
G01*
X114070855Y-73000083D01*
X114164491Y-72742446D01*
X114243746Y-72524270D01*
X114305105Y-72355231D01*
X114345052Y-72245006D01*
X114358414Y-72207966D01*
X114384478Y-72149072D01*
X114423294Y-72116087D01*
X114495570Y-72101556D01*
X114622013Y-72098024D01*
X114663913Y-72097986D01*
X114930000Y-72098180D01*
X115434710Y-73490178D01*
X115939421Y-74882177D01*
X115740287Y-74894440D01*
X115622419Y-74898275D01*
X115542223Y-74894477D01*
X115523612Y-74889133D01*
X115503536Y-74846209D01*
X115463595Y-74744750D01*
X115410369Y-74601842D01*
X115372283Y-74496271D01*
X115238497Y-74120978D01*
X114056736Y-74120978D01*
X113930189Y-74501578D01*
X113803642Y-74882177D01*
X113596821Y-74894286D01*
X113480617Y-74898093D01*
X113405585Y-74894798D01*
X113390000Y-74889166D01*
X113403202Y-74848798D01*
X113440704Y-74741976D01*
X113499345Y-74577504D01*
X113575965Y-74364188D01*
X113667403Y-74110831D01*
X113770499Y-73826239D01*
X113792666Y-73765227D01*
X114190000Y-73765227D01*
X114227367Y-73771217D01*
X114328940Y-73776097D01*
X114478930Y-73779345D01*
X114650000Y-73780442D01*
X114831106Y-73778970D01*
X114978645Y-73774968D01*
X115076826Y-73769058D01*
X115110000Y-73762318D01*
X115097134Y-73716604D01*
X115062200Y-73613417D01*
X115010692Y-73467666D01*
X114948101Y-73294260D01*
X114879922Y-73108109D01*
X114811648Y-72924122D01*
X114748773Y-72757208D01*
X114696789Y-72622277D01*
X114661190Y-72534237D01*
X114647645Y-72507459D01*
X114631077Y-72546667D01*
X114593159Y-72645994D01*
X114539466Y-72790108D01*
X114475579Y-72963679D01*
X114407075Y-73151375D01*
X114339533Y-73337865D01*
X114278531Y-73507817D01*
X114229647Y-73645902D01*
X114198459Y-73736786D01*
X114190000Y-73765227D01*
X113792666Y-73765227D01*
X113854501Y-73595038D01*
X113966353Y-73287506D01*
G37*
G36*
X111230000Y-73179496D02*
G01*
X112590000Y-73179496D01*
X112590000Y-72097792D01*
X112990000Y-72097792D01*
X112990000Y-74902209D01*
X112590000Y-74902209D01*
X112590000Y-73500000D01*
X111230000Y-73500000D01*
X111230000Y-74902209D01*
X110830000Y-74902209D01*
X110830000Y-72097792D01*
X111230000Y-72097792D01*
X111230000Y-73179496D01*
G37*
G36*
X109150000Y-73215463D02*
G01*
X108875512Y-73210366D01*
X108700047Y-73214290D01*
X108565988Y-73239001D01*
X108435802Y-73292279D01*
X108405512Y-73307788D01*
X108210000Y-73410309D01*
X108188234Y-74902209D01*
X107790000Y-74902209D01*
X107790000Y-72818928D01*
X107990000Y-72818928D01*
X108108395Y-72821554D01*
X108167434Y-72837699D01*
X108187754Y-72879765D01*
X108190000Y-72939117D01*
X108196052Y-73023571D01*
X108210632Y-73059299D01*
X108210857Y-73059306D01*
X108253474Y-73039040D01*
X108338973Y-72987364D01*
X108397249Y-72949588D01*
X108509644Y-72886203D01*
X108628392Y-72848944D01*
X108784568Y-72829379D01*
X108856391Y-72825020D01*
X109150000Y-72810170D01*
X109150000Y-73215463D01*
G37*
G36*
X107150000Y-74902209D02*
G01*
X106750000Y-74902209D01*
X106750000Y-72818928D01*
X107150000Y-72818928D01*
X107150000Y-74902209D01*
G37*
G36*
X104406353Y-73287506D02*
G01*
X104510855Y-73000083D01*
X104604491Y-72742446D01*
X104683746Y-72524270D01*
X104745105Y-72355231D01*
X104785052Y-72245006D01*
X104798414Y-72207966D01*
X104824478Y-72149072D01*
X104863294Y-72116087D01*
X104935570Y-72101556D01*
X105062013Y-72098024D01*
X105103913Y-72097986D01*
X105370000Y-72098180D01*
X105874710Y-73490178D01*
X106379421Y-74882177D01*
X106180287Y-74894440D01*
X106062419Y-74898275D01*
X105982223Y-74894477D01*
X105963612Y-74889133D01*
X105943536Y-74846209D01*
X105903595Y-74744750D01*
X105850369Y-74601842D01*
X105812283Y-74496271D01*
X105678497Y-74120978D01*
X104496736Y-74120978D01*
X104370189Y-74501578D01*
X104243642Y-74882177D01*
X104036821Y-74894286D01*
X103920617Y-74898093D01*
X103845585Y-74894798D01*
X103830000Y-74889166D01*
X103843202Y-74848798D01*
X103880704Y-74741976D01*
X103939345Y-74577504D01*
X104015965Y-74364188D01*
X104107403Y-74110831D01*
X104210499Y-73826239D01*
X104232666Y-73765227D01*
X104630000Y-73765227D01*
X104667367Y-73771217D01*
X104768940Y-73776097D01*
X104918930Y-73779345D01*
X105090000Y-73780442D01*
X105271106Y-73778970D01*
X105418645Y-73774968D01*
X105516826Y-73769058D01*
X105550000Y-73762318D01*
X105537134Y-73716604D01*
X105502200Y-73613417D01*
X105450692Y-73467666D01*
X105388101Y-73294260D01*
X105319922Y-73108109D01*
X105251648Y-72924122D01*
X105188773Y-72757208D01*
X105136789Y-72622277D01*
X105101190Y-72534237D01*
X105087645Y-72507459D01*
X105071077Y-72546667D01*
X105033159Y-72645994D01*
X104979466Y-72790108D01*
X104915579Y-72963679D01*
X104847075Y-73151375D01*
X104779533Y-73337865D01*
X104718531Y-73507817D01*
X104669647Y-73645902D01*
X104638459Y-73736786D01*
X104630000Y-73765227D01*
X104232666Y-73765227D01*
X104294501Y-73595038D01*
X104406353Y-73287506D01*
G37*
G36*
X103830000Y-73215463D02*
G01*
X103555512Y-73210366D01*
X103380047Y-73214290D01*
X103245988Y-73239001D01*
X103115802Y-73292279D01*
X103085512Y-73307788D01*
X102890000Y-73410309D01*
X102868234Y-74902209D01*
X102470000Y-74902209D01*
X102470000Y-72818928D01*
X102670000Y-72818928D01*
X102788395Y-72821554D01*
X102847434Y-72837699D01*
X102867754Y-72879765D01*
X102870000Y-72939117D01*
X102876052Y-73023571D01*
X102890632Y-73059299D01*
X102890857Y-73059306D01*
X102933474Y-73039040D01*
X103018973Y-72987364D01*
X103077249Y-72949588D01*
X103189644Y-72886203D01*
X103308392Y-72848944D01*
X103464568Y-72829379D01*
X103536391Y-72825020D01*
X103830000Y-72810170D01*
X103830000Y-73215463D01*
G37*
G36*
X98459793Y-73624070D02*
G01*
X98775506Y-74429213D01*
X98967678Y-73934559D01*
X99053340Y-73713632D01*
X99141506Y-73485520D01*
X99221373Y-73278210D01*
X99278427Y-73129417D01*
X99397002Y-72818928D01*
X99593501Y-72818928D01*
X99706101Y-72824417D01*
X99776456Y-72838429D01*
X99788492Y-72848975D01*
X99773492Y-72892593D01*
X99731955Y-73000368D01*
X99667837Y-73162378D01*
X99585095Y-73368702D01*
X99487685Y-73609420D01*
X99379562Y-73874610D01*
X99377111Y-73880600D01*
X98967238Y-74882177D01*
X98767969Y-74893962D01*
X98568699Y-74905746D01*
X98159036Y-73892384D01*
X98051368Y-73624965D01*
X97954310Y-73381811D01*
X97871740Y-73172805D01*
X97807533Y-73007831D01*
X97765569Y-72896771D01*
X97749723Y-72849507D01*
X97749686Y-72848975D01*
X97785837Y-72831720D01*
X97877784Y-72820854D01*
X97947040Y-72818928D01*
X98144080Y-72818928D01*
X98459793Y-73624070D01*
G37*
G36*
X90990000Y-74902209D02*
G01*
X90590000Y-74902209D01*
X90590000Y-72818928D01*
X90990000Y-72818928D01*
X90990000Y-74902209D01*
G37*
G36*
X88400000Y-72104372D02*
G01*
X88654871Y-72110479D01*
X88844889Y-72117814D01*
X88985196Y-72128340D01*
X89090935Y-72144019D01*
X89177248Y-72166815D01*
X89259279Y-72198690D01*
X89311825Y-72222561D01*
X89591532Y-72388306D01*
X89806436Y-72596585D01*
X89961455Y-72853897D01*
X90061505Y-73166741D01*
X90074208Y-73230278D01*
X90099942Y-73566601D01*
X90054604Y-73885988D01*
X89942851Y-74178533D01*
X89769340Y-74434333D01*
X89538729Y-74643481D01*
X89359520Y-74750164D01*
X89260695Y-74797959D01*
X89177138Y-74832808D01*
X89093402Y-74857064D01*
X88994038Y-74873079D01*
X88863599Y-74883206D01*
X88686636Y-74889799D01*
X88447701Y-74895209D01*
X88400944Y-74896157D01*
X87710000Y-74910137D01*
X87710000Y-74581704D01*
X88110000Y-74581704D01*
X88300000Y-74580910D01*
X88443926Y-74574350D01*
X88622699Y-74558157D01*
X88761764Y-74540760D01*
X89043157Y-74477401D01*
X89264332Y-74374673D01*
X89437863Y-74226445D01*
X89460473Y-74200013D01*
X89570970Y-74030602D01*
X89637947Y-73835104D01*
X89667187Y-73593479D01*
X89669609Y-73475321D01*
X89637527Y-73179785D01*
X89543448Y-72929725D01*
X89389278Y-72729417D01*
X89306779Y-72660945D01*
X89184434Y-72581737D01*
X89058201Y-72524635D01*
X88908772Y-72484345D01*
X88716838Y-72455574D01*
X88480000Y-72434271D01*
X88110000Y-72406800D01*
X88110000Y-74581704D01*
X87710000Y-74581704D01*
X87710000Y-72089864D01*
X88400000Y-72104372D01*
G37*
G36*
X100105742Y-73481733D02*
G01*
X100136089Y-73379090D01*
X100185183Y-73280723D01*
X100212723Y-73234808D01*
X100361529Y-73052124D01*
X100527920Y-72920145D01*
X100628802Y-72861746D01*
X100717385Y-72825816D01*
X100818621Y-72806970D01*
X100957465Y-72799822D01*
X101089784Y-72798896D01*
X101269945Y-72801138D01*
X101393731Y-72811119D01*
X101484718Y-72833719D01*
X101566480Y-72873819D01*
X101622130Y-72909114D01*
X101788049Y-73059772D01*
X101901633Y-73260360D01*
X101966512Y-73518158D01*
X101978426Y-73623747D01*
X102001602Y-73900631D01*
X101215801Y-73900631D01*
X100939782Y-73900569D01*
X100734627Y-73902498D01*
X100591209Y-73909592D01*
X100500401Y-73925023D01*
X100453076Y-73951964D01*
X100440107Y-73993590D01*
X100452366Y-74053072D01*
X100480728Y-74133585D01*
X100487952Y-74153678D01*
X100594448Y-74359246D01*
X100745331Y-74500807D01*
X100941539Y-74578528D01*
X101184011Y-74592576D01*
X101473687Y-74543119D01*
X101811503Y-74430326D01*
X101880000Y-74402257D01*
X101921557Y-74394477D01*
X101942516Y-74427527D01*
X101949571Y-74517745D01*
X101950000Y-74573067D01*
X101946614Y-74693209D01*
X101924672Y-74761438D01*
X101866493Y-74805964D01*
X101780000Y-74844301D01*
X101630043Y-74886885D01*
X101431819Y-74916169D01*
X101211558Y-74931107D01*
X100995494Y-74930653D01*
X100809856Y-74913763D01*
X100699918Y-74887356D01*
X100454706Y-74756604D01*
X100264796Y-74568610D01*
X100160556Y-74392017D01*
X100112396Y-74277042D01*
X100084272Y-74174510D01*
X100072453Y-74058002D01*
X100073206Y-73901098D01*
X100077055Y-73800976D01*
X100087715Y-73620190D01*
X100437489Y-73620190D01*
X101590000Y-73620190D01*
X101590000Y-73516198D01*
X101555384Y-73364792D01*
X101465677Y-73227378D01*
X101342092Y-73136176D01*
X101338923Y-73134837D01*
X101182651Y-73098158D01*
X100996298Y-73093380D01*
X100823211Y-73120599D01*
X100783930Y-73133618D01*
X100677932Y-73204136D01*
X100571110Y-73320546D01*
X100488094Y-73452775D01*
X100459251Y-73530048D01*
X100437489Y-73620190D01*
X100087715Y-73620190D01*
X100088084Y-73613934D01*
X100105742Y-73481733D01*
G37*
G36*
X95573475Y-73523733D02*
G01*
X95597040Y-73412136D01*
X95683091Y-73232603D01*
X95821501Y-73057805D01*
X95988065Y-72913910D01*
X96128634Y-72837352D01*
X96305482Y-72792248D01*
X96520735Y-72782581D01*
X96582674Y-72785255D01*
X96855431Y-72828723D01*
X97075019Y-72928490D01*
X97250016Y-73089911D01*
X97367958Y-73275357D01*
X97428225Y-73403167D01*
X97464089Y-73514625D01*
X97481647Y-73639490D01*
X97486997Y-73807520D01*
X97487142Y-73857016D01*
X97483280Y-74044193D01*
X97467875Y-74181388D01*
X97435200Y-74298533D01*
X97379526Y-74425560D01*
X97377583Y-74429545D01*
X97229182Y-74657728D01*
X97038163Y-74819270D01*
X96874031Y-74895549D01*
X96692344Y-74932731D01*
X96477700Y-74939808D01*
X96265879Y-74918093D01*
X96092663Y-74868898D01*
X96087767Y-74866708D01*
X95920210Y-74757604D01*
X95763773Y-74599067D01*
X95643136Y-74419213D01*
X95596422Y-74306933D01*
X95566451Y-74145978D01*
X95552652Y-73939698D01*
X95553503Y-73860568D01*
X95950000Y-73860568D01*
X95969160Y-74121883D01*
X96028323Y-74320464D01*
X96130012Y-74464362D01*
X96142841Y-74476255D01*
X96296136Y-74563872D01*
X96482561Y-74598477D01*
X96673858Y-74578436D01*
X96821909Y-74515500D01*
X96949333Y-74390521D01*
X97039031Y-74213758D01*
X97089442Y-74004896D01*
X97099004Y-73783622D01*
X97066157Y-73569624D01*
X96989340Y-73382587D01*
X96919166Y-73289030D01*
X96757444Y-73174271D01*
X96561761Y-73123838D01*
X96377075Y-73137435D01*
X96199134Y-73206886D01*
X96071645Y-73325897D01*
X95991016Y-73500549D01*
X95953656Y-73736921D01*
X95950000Y-73860568D01*
X95553503Y-73860568D01*
X95555001Y-73721236D01*
X95573475Y-73523733D01*
G37*
G36*
X94786908Y-72797405D02*
G01*
X94998602Y-72834389D01*
X95120000Y-72874688D01*
X95209335Y-72918805D01*
X95253566Y-72967473D01*
X95268504Y-73048660D01*
X95270000Y-73139970D01*
X95265306Y-73254090D01*
X95253309Y-73326408D01*
X95243986Y-73339748D01*
X95196682Y-73323421D01*
X95100962Y-73281143D01*
X95006921Y-73236327D01*
X94761638Y-73150074D01*
X94577937Y-73130945D01*
X94348699Y-73157532D01*
X94172373Y-73242744D01*
X94047872Y-73387843D01*
X93974111Y-73594093D01*
X93950000Y-73860568D01*
X93973613Y-74128568D01*
X94045624Y-74333501D01*
X94167790Y-74477397D01*
X94341870Y-74562291D01*
X94569620Y-74590213D01*
X94580982Y-74590164D01*
X94832754Y-74553280D01*
X95006921Y-74484809D01*
X95124492Y-74429209D01*
X95211739Y-74391666D01*
X95243986Y-74381388D01*
X95258921Y-74417410D01*
X95268329Y-74509378D01*
X95270000Y-74578825D01*
X95270000Y-74776262D01*
X95048499Y-74859267D01*
X94824555Y-74916748D01*
X94572744Y-74939643D01*
X94326859Y-74927064D01*
X94134619Y-74883287D01*
X93947346Y-74780229D01*
X93777645Y-74621771D01*
X93649044Y-74432416D01*
X93607769Y-74334601D01*
X93572709Y-74181259D01*
X93550603Y-73988312D01*
X93545571Y-73841936D01*
X93576920Y-73527423D01*
X93667740Y-73266246D01*
X93818530Y-73057597D01*
X94029789Y-72900669D01*
X94165124Y-72838695D01*
X94339013Y-72798384D01*
X94556660Y-72785012D01*
X94786908Y-72797405D01*
G37*
G36*
X92703075Y-72796893D02*
G01*
X92883654Y-72835388D01*
X93110000Y-72901292D01*
X93110000Y-73100489D01*
X93107255Y-73214431D01*
X93100241Y-73286521D01*
X93094833Y-73299685D01*
X93053401Y-73284322D01*
X92960677Y-73244321D01*
X92854049Y-73196230D01*
X92647725Y-73124919D01*
X92439691Y-73093385D01*
X92247907Y-73100820D01*
X92090333Y-73146413D01*
X91984930Y-73229357D01*
X91980612Y-73235572D01*
X91958235Y-73306536D01*
X91950612Y-73388903D01*
X91963407Y-73465303D01*
X92009921Y-73527324D01*
X92100914Y-73580831D01*
X92247141Y-73631687D01*
X92459362Y-73685757D01*
X92520835Y-73699757D01*
X92716936Y-73747472D01*
X92854658Y-73792195D01*
X92954781Y-73842517D01*
X93038086Y-73907029D01*
X93050835Y-73918857D01*
X93133801Y-74006167D01*
X93175135Y-74086581D01*
X93188902Y-74195217D01*
X93189850Y-74265930D01*
X93161302Y-74488227D01*
X93071453Y-74664365D01*
X92913477Y-74806867D01*
X92884907Y-74825234D01*
X92737771Y-74884650D01*
X92537793Y-74922900D01*
X92309566Y-74938940D01*
X92077686Y-74931724D01*
X91866747Y-74900206D01*
X91770000Y-74872640D01*
X91570000Y-74802051D01*
X91557909Y-74591720D01*
X91555851Y-74474353D01*
X91563510Y-74398004D01*
X91573188Y-74381388D01*
X91622177Y-74400638D01*
X91708065Y-74448131D01*
X91727576Y-74460014D01*
X91926653Y-74553826D01*
X92150555Y-74612372D01*
X92374660Y-74632721D01*
X92574345Y-74611938D01*
X92681914Y-74573695D01*
X92765556Y-74490557D01*
X92805494Y-74368493D01*
X92791490Y-74245095D01*
X92754602Y-74185616D01*
X92685882Y-74136923D01*
X92572308Y-74093573D01*
X92400857Y-74050124D01*
X92250000Y-74018815D01*
X92089218Y-73978934D01*
X91934793Y-73927504D01*
X91858430Y-73894378D01*
X91695309Y-73772617D01*
X91593886Y-73614764D01*
X91554458Y-73436088D01*
X91577321Y-73251860D01*
X91662772Y-73077350D01*
X91811107Y-72927827D01*
X91839296Y-72908168D01*
X92002608Y-72835922D01*
X92217129Y-72792170D01*
X92458679Y-72778599D01*
X92703075Y-72796893D01*
G37*
D12*
X94980000Y-110880000D02*
G75*
G03*
X95080000Y-110880000I50000J0D01*
G01*
X95080000Y-110880000D02*
G75*
G03*
X94980000Y-110880000I-50000J0D01*
G01*
X94980000Y-110880000D02*
G75*
G03*
X95080000Y-110880000I50000J0D01*
G01*
D13*
X97480000Y-115330000D02*
X101480000Y-115330000D01*
X97480000Y-110230000D02*
X101480000Y-110230000D01*
X102030000Y-111780000D02*
X102030000Y-113780000D01*
X96930000Y-111780000D02*
X96930000Y-113780000D01*
D12*
X94980000Y-110880000D02*
X94980000Y-110880000D01*
X95080000Y-110880000D02*
X95080000Y-110880000D01*
X94980000Y-110880000D02*
X94980000Y-110880000D01*
D14*
X109234500Y-113185276D02*
X109234500Y-113694724D01*
X108189500Y-113185276D02*
X108189500Y-113694724D01*
X107022500Y-113185276D02*
X107022500Y-113694724D01*
X105977500Y-113185276D02*
X105977500Y-113694724D01*
X171345276Y-93542500D02*
X171854724Y-93542500D01*
X171345276Y-92497500D02*
X171854724Y-92497500D01*
X131774724Y-86662500D02*
X131265276Y-86662500D01*
X131774724Y-85617500D02*
X131265276Y-85617500D01*
X100895276Y-105122500D02*
X101404724Y-105122500D01*
X100895276Y-104077500D02*
X101404724Y-104077500D01*
X169844000Y-92146000D02*
X172704000Y-92146000D01*
X172704000Y-90226000D02*
X169844000Y-90226000D01*
X169844000Y-90226000D02*
X169844000Y-92146000D01*
X133260000Y-83340000D02*
X130400000Y-83340000D01*
X130400000Y-85260000D02*
X133260000Y-85260000D01*
X133260000Y-85260000D02*
X133260000Y-83340000D01*
X101915000Y-102255000D02*
X99455000Y-102255000D01*
X99455000Y-103725000D02*
X101915000Y-103725000D01*
X99455000Y-102255000D02*
X99455000Y-103725000D01*
X135290000Y-103824000D02*
X135290000Y-101974000D01*
X136490000Y-103824000D02*
X136490000Y-101974000D01*
X136490000Y-101974000D02*
X135290000Y-101974000D01*
X111192000Y-93487000D02*
X113852000Y-93487000D01*
X111192000Y-93487000D02*
X111192000Y-98627000D01*
X111192000Y-98627000D02*
X113852000Y-98627000D01*
X111192000Y-90887000D02*
X112522000Y-90887000D01*
X113852000Y-93487000D02*
X113852000Y-98627000D01*
X111192000Y-92217000D02*
X111192000Y-90887000D01*
X107151224Y-88337500D02*
X106641776Y-88337500D01*
X107151224Y-89382500D02*
X106641776Y-89382500D01*
X149216500Y-98771276D02*
X149216500Y-99280724D01*
X148171500Y-98771276D02*
X148171500Y-99280724D01*
X124230000Y-108030000D02*
X124230000Y-104270000D01*
X117410000Y-104270000D02*
X118670000Y-104270000D01*
X117410000Y-110280000D02*
X117410000Y-104270000D01*
X124230000Y-104270000D02*
X122970000Y-104270000D01*
X127730000Y-112460000D02*
G75*
G03*
X127730000Y-112460000I-1200000J0D01*
G01*
X164130000Y-82370000D02*
X169530000Y-82370000D01*
X164130000Y-85670000D02*
X169530000Y-85670000D01*
X164130000Y-82370000D02*
X164130000Y-85670000D01*
X156177500Y-93854724D02*
X156177500Y-93345276D01*
X157222500Y-93854724D02*
X157222500Y-93345276D01*
X137704000Y-93472000D02*
X137704000Y-91797000D01*
X134584000Y-93472000D02*
X134584000Y-92822000D01*
X137704000Y-93472000D02*
X137704000Y-94122000D01*
X134584000Y-93472000D02*
X134584000Y-94122000D01*
X169677000Y-111058000D02*
X167077000Y-111058000D01*
X167077000Y-108398000D02*
X167077000Y-111058000D01*
X169677000Y-108398000D02*
X169677000Y-111058000D01*
X169677000Y-108398000D02*
X167077000Y-108398000D01*
X172277000Y-108398000D02*
X172277000Y-109728000D01*
X170947000Y-108398000D02*
X172277000Y-108398000D01*
X135892000Y-111652267D02*
X135892000Y-111359733D01*
X134872000Y-111652267D02*
X134872000Y-111359733D01*
X165100000Y-109006267D02*
X165100000Y-108713733D01*
X166120000Y-109006267D02*
X166120000Y-108713733D01*
X140646000Y-109982000D02*
G75*
G03*
X140646000Y-109982000I-1200000J0D01*
G01*
X85250000Y-151000000D02*
X87750000Y-151000000D01*
X167640000Y-148440000D02*
X172000000Y-148440000D01*
X167640000Y-155440000D02*
X167640000Y-148440000D01*
X172750000Y-151000000D02*
X170250000Y-151000000D01*
X90360000Y-148440000D02*
X90360000Y-155420000D01*
X90360000Y-134560000D02*
X167640000Y-134560000D01*
X90360000Y-141560000D02*
X90360000Y-134560000D01*
X167640000Y-134560000D02*
X167640000Y-141560000D01*
X90360000Y-155440000D02*
X167640000Y-155440000D01*
X171500000Y-149750000D02*
X171500000Y-152250000D01*
X151175276Y-85522500D02*
X151684724Y-85522500D01*
X151175276Y-84477500D02*
X151684724Y-84477500D01*
X164619000Y-113511064D02*
X164619000Y-113056936D01*
X166089000Y-113511064D02*
X166089000Y-113056936D01*
X138185276Y-104322500D02*
X138694724Y-104322500D01*
X138185276Y-103277500D02*
X138694724Y-103277500D01*
X155530000Y-83440000D02*
X154880000Y-83440000D01*
X155530000Y-86560000D02*
X154880000Y-86560000D01*
X155530000Y-86560000D02*
X157205000Y-86560000D01*
X155530000Y-83440000D02*
X156180000Y-83440000D01*
X100224000Y-92959233D02*
X100224000Y-93251767D01*
X101244000Y-92959233D02*
X101244000Y-93251767D01*
X107138724Y-86737500D02*
X106629276Y-86737500D01*
X107138724Y-87782500D02*
X106629276Y-87782500D01*
X129620000Y-109116267D02*
X129620000Y-108823733D01*
X128600000Y-109116267D02*
X128600000Y-108823733D01*
X107138724Y-85137500D02*
X106629276Y-85137500D01*
X107138724Y-86182500D02*
X106629276Y-86182500D01*
X145820000Y-112752000D02*
X145820000Y-109752000D01*
X148820000Y-112752000D02*
X148820000Y-108752000D01*
X100164000Y-96891733D02*
X100164000Y-97184267D01*
X101184000Y-96891733D02*
X101184000Y-97184267D01*
X168355000Y-80357000D02*
X87015000Y-80357000D01*
X170955000Y-79027000D02*
X170955000Y-80357000D01*
X87015000Y-77697000D02*
X87015000Y-80357000D01*
X168355000Y-77697000D02*
X168355000Y-80357000D01*
X168355000Y-77697000D02*
X87015000Y-77697000D01*
X170955000Y-80357000D02*
X169625000Y-80357000D01*
D15*
X141348000Y-112090000D02*
G75*
G03*
X141348000Y-112090000I-125000J0D01*
G01*
D14*
X135889276Y-98537500D02*
X136398724Y-98537500D01*
X135889276Y-99582500D02*
X136398724Y-99582500D01*
X140222500Y-93979276D02*
X140222500Y-94488724D01*
X139177500Y-93979276D02*
X139177500Y-94488724D01*
X145832776Y-116092500D02*
X146342224Y-116092500D01*
X145832776Y-115047500D02*
X146342224Y-115047500D01*
X131970000Y-92130000D02*
G75*
G03*
X131970000Y-92130000I-1200000J0D01*
G01*
X118238000Y-100174000D02*
X118238000Y-94774000D01*
X118238000Y-100174000D02*
X121538000Y-100174000D01*
X121538000Y-100174000D02*
X121538000Y-94774000D01*
X135865276Y-101262500D02*
X136374724Y-101262500D01*
X135865276Y-100217500D02*
X136374724Y-100217500D01*
X124460000Y-97572000D02*
X123810000Y-97572000D01*
X124460000Y-94452000D02*
X122785000Y-94452000D01*
X124460000Y-97572000D02*
X125110000Y-97572000D01*
X124460000Y-94452000D02*
X125110000Y-94452000D01*
X143694000Y-114554000D02*
G75*
G03*
X143694000Y-114554000I-1200000J0D01*
G01*
X160805276Y-109822500D02*
X161314724Y-109822500D01*
X160805276Y-108777500D02*
X161314724Y-108777500D01*
X161836000Y-106707000D02*
X159376000Y-106707000D01*
X159376000Y-108177000D02*
X161836000Y-108177000D01*
X159376000Y-106707000D02*
X159376000Y-108177000D01*
D12*
X165900000Y-102575000D02*
X163900000Y-102575000D01*
X163900000Y-102425000D02*
X165900000Y-102425000D01*
X165900000Y-102425000D02*
X165900000Y-102575000D01*
X163700000Y-103975000D02*
X163700000Y-102925000D01*
X163900000Y-102575000D02*
X163900000Y-102425000D01*
X163756000Y-113455000D02*
X160856000Y-113455000D01*
X163756000Y-112605000D02*
X163756000Y-113455000D01*
X163781000Y-111205000D02*
X163781000Y-112255000D01*
X160856000Y-113455000D02*
X160856000Y-112605000D01*
X160856000Y-112605000D02*
X163756000Y-112605000D01*
D14*
X118603500Y-84836724D02*
X118603500Y-84327276D01*
X119648500Y-84836724D02*
X119648500Y-84327276D01*
X134804000Y-103378000D02*
G75*
G03*
X134804000Y-103378000I-1200000J0D01*
G01*
X118720776Y-92978500D02*
X119230224Y-92978500D01*
X118720776Y-91933500D02*
X119230224Y-91933500D01*
X143002000Y-102636000D02*
X141052000Y-102636000D01*
X143002000Y-97516000D02*
X144952000Y-97516000D01*
X143002000Y-97516000D02*
X139552000Y-97516000D01*
X143002000Y-102636000D02*
X144952000Y-102636000D01*
X133788000Y-97028000D02*
G75*
G03*
X133788000Y-97028000I-1200000J0D01*
G01*
X169625000Y-67537000D02*
X170955000Y-67537000D01*
X168355000Y-70197000D02*
X87015000Y-70197000D01*
X168355000Y-67537000D02*
X168355000Y-70197000D01*
X170955000Y-67537000D02*
X170955000Y-68867000D01*
X87015000Y-67537000D02*
X87015000Y-70197000D01*
X168355000Y-67537000D02*
X87015000Y-67537000D01*
X154940000Y-109256000D02*
X155590000Y-109256000D01*
X154940000Y-106136000D02*
X155590000Y-106136000D01*
X154940000Y-106136000D02*
X153265000Y-106136000D01*
X154940000Y-109256000D02*
X154290000Y-109256000D01*
X115047500Y-84836724D02*
X115047500Y-84327276D01*
X116092500Y-84836724D02*
X116092500Y-84327276D01*
X122622000Y-86863000D02*
X122622000Y-89463000D01*
X122622000Y-84263000D02*
X123952000Y-84263000D01*
X125282000Y-86863000D02*
X125282000Y-89463000D01*
X122622000Y-85593000D02*
X122622000Y-84263000D01*
X122622000Y-89463000D02*
X125282000Y-89463000D01*
X122622000Y-86863000D02*
X125282000Y-86863000D01*
X174428000Y-135890000D02*
G75*
G03*
X174428000Y-135890000I-1200000J0D01*
G01*
X161275276Y-83497500D02*
X161784724Y-83497500D01*
X161275276Y-84542500D02*
X161784724Y-84542500D01*
X149216500Y-102205276D02*
X149216500Y-102714724D01*
X148171500Y-102205276D02*
X148171500Y-102714724D01*
X130560000Y-111090000D02*
X133220000Y-111090000D01*
X130560000Y-108490000D02*
X131890000Y-108490000D01*
X130560000Y-109820000D02*
X130560000Y-108490000D01*
X133220000Y-111090000D02*
X133220000Y-113690000D01*
X130560000Y-113690000D02*
X133220000Y-113690000D01*
X130560000Y-111090000D02*
X130560000Y-113690000D01*
X103764000Y-96638000D02*
X105564000Y-96638000D01*
X103764000Y-96638000D02*
X102964000Y-96638000D01*
X103764000Y-93518000D02*
X104564000Y-93518000D01*
X103764000Y-93518000D02*
X102964000Y-93518000D01*
X94629276Y-86437500D02*
X95138724Y-86437500D01*
X94629276Y-87482500D02*
X95138724Y-87482500D01*
X100584000Y-88920000D02*
X104034000Y-88920000D01*
X100584000Y-83800000D02*
X98634000Y-83800000D01*
X100584000Y-83800000D02*
X102534000Y-83800000D01*
X100584000Y-88920000D02*
X98634000Y-88920000D01*
X162610000Y-93946267D02*
X162610000Y-93653733D01*
X161590000Y-93946267D02*
X161590000Y-93653733D01*
X124870000Y-108633767D02*
X124870000Y-108341233D01*
X125890000Y-108633767D02*
X125890000Y-108341233D01*
X169625000Y-128497000D02*
X170955000Y-128497000D01*
X168355000Y-128497000D02*
X168355000Y-131157000D01*
X87015000Y-128497000D02*
X87015000Y-131157000D01*
X170955000Y-128497000D02*
X170955000Y-129827000D01*
X168355000Y-131157000D02*
X87015000Y-131157000D01*
X168355000Y-128497000D02*
X87015000Y-128497000D01*
X161110000Y-93946267D02*
X161110000Y-93653733D01*
X160090000Y-93946267D02*
X160090000Y-93653733D01*
X108896000Y-108204000D02*
G75*
G03*
X108896000Y-108204000I-1200000J0D01*
G01*
D15*
X159965000Y-101250000D02*
G75*
G03*
X159965000Y-101250000I-125000J0D01*
G01*
D14*
X141912500Y-94484724D02*
X141912500Y-93975276D01*
X140867500Y-94484724D02*
X140867500Y-93975276D01*
X168355000Y-120997000D02*
X87015000Y-120997000D01*
X170955000Y-119667000D02*
X170955000Y-120997000D01*
X168355000Y-118337000D02*
X87015000Y-118337000D01*
X87015000Y-118337000D02*
X87015000Y-120997000D01*
X170955000Y-120997000D02*
X169625000Y-120997000D01*
X168355000Y-118337000D02*
X168355000Y-120997000D01*
X157620000Y-87710000D02*
X157620000Y-91010000D01*
X157620000Y-87710000D02*
X163020000Y-87710000D01*
X157620000Y-91010000D02*
X163020000Y-91010000D01*
X107444000Y-93364267D02*
X107444000Y-93071733D01*
X106424000Y-93364267D02*
X106424000Y-93071733D01*
D12*
X171350000Y-100623250D02*
G75*
G03*
X171350000Y-100623250I-100000J0D01*
G01*
D16*
X172340000Y-102873250D02*
X172340000Y-102668250D01*
X177000000Y-102873250D02*
X176640000Y-102873250D01*
X172340000Y-95673250D02*
X172340000Y-95878250D01*
X177000000Y-95673250D02*
X177000000Y-102873250D01*
X176640000Y-95673250D02*
X177000000Y-95673250D01*
X173860000Y-102873250D02*
X172340000Y-102873250D01*
X173860000Y-95673250D02*
X172340000Y-95673250D01*
D14*
X161275276Y-86492500D02*
X161784724Y-86492500D01*
X161275276Y-85447500D02*
X161784724Y-85447500D01*
D10*
X118823000Y-86692000D02*
X115873000Y-86692000D01*
X118448000Y-90092000D02*
X116248000Y-90092000D01*
D14*
X97396267Y-89450000D02*
X97103733Y-89450000D01*
X97396267Y-90470000D02*
X97103733Y-90470000D01*
X164553733Y-95790000D02*
X164846267Y-95790000D01*
X164553733Y-96810000D02*
X164846267Y-96810000D01*
X171150000Y-114180000D02*
X171150000Y-114830000D01*
X168030000Y-114180000D02*
X168030000Y-114830000D01*
X171150000Y-114180000D02*
X171150000Y-112505000D01*
X168030000Y-114180000D02*
X168030000Y-113530000D01*
X87010000Y-87390000D02*
X87010000Y-86060000D01*
X87010000Y-86060000D02*
X88340000Y-86060000D01*
X87010000Y-88660000D02*
X87010000Y-111580000D01*
X87010000Y-111580000D02*
X89670000Y-111580000D01*
X87010000Y-88660000D02*
X89670000Y-88660000D01*
X89670000Y-88660000D02*
X89670000Y-111580000D01*
X113852000Y-104394000D02*
X113852000Y-109534000D01*
X111192000Y-104394000D02*
X113852000Y-104394000D01*
X111192000Y-109534000D02*
X113852000Y-109534000D01*
X111192000Y-104394000D02*
X111192000Y-109534000D01*
X111192000Y-101794000D02*
X112522000Y-101794000D01*
X111192000Y-103124000D02*
X111192000Y-101794000D01*
X149732000Y-102301233D02*
X149732000Y-102593767D01*
X150752000Y-102301233D02*
X150752000Y-102593767D01*
X136398724Y-97804500D02*
X135889276Y-97804500D01*
X136398724Y-96759500D02*
X135889276Y-96759500D01*
X120394000Y-89007733D02*
X120394000Y-89300267D01*
X121414000Y-89007733D02*
X121414000Y-89300267D01*
%LPC*%
D17*
X102480000Y-114655000D03*
X96480000Y-114655000D03*
X102480000Y-110905000D03*
X96480000Y-110905000D03*
D18*
X108712000Y-112527500D03*
X108712000Y-114352500D03*
X106500000Y-112527500D03*
X106500000Y-114352500D03*
D19*
X172512500Y-93020000D03*
X170687500Y-93020000D03*
D20*
X132432500Y-86140000D03*
X130607500Y-86140000D03*
D19*
X102062500Y-104600000D03*
X100237500Y-104600000D03*
D21*
X170679000Y-91186000D03*
X172729000Y-91186000D03*
D22*
X132425000Y-84300000D03*
X130375000Y-84300000D03*
D23*
X100240000Y-102990000D03*
X101990000Y-102990000D03*
D24*
X135890000Y-102424000D03*
X135890000Y-103824000D03*
D25*
X112522000Y-92217000D03*
D26*
X112522000Y-94757000D03*
X112522000Y-97297000D03*
D20*
X107809000Y-88860000D03*
X105984000Y-88860000D03*
D18*
X148694000Y-98113500D03*
X148694000Y-99938500D03*
D27*
X120820000Y-103030000D03*
D28*
X123120000Y-109330000D03*
X120820000Y-109330000D03*
X118520000Y-109330000D03*
D29*
X126530000Y-112460000D03*
D30*
X165530000Y-84020000D03*
X169530000Y-84020000D03*
D31*
X156700000Y-94512500D03*
X156700000Y-92687500D03*
D32*
X137094000Y-92534500D03*
X135194000Y-92534500D03*
X136144000Y-94409500D03*
D25*
X170947000Y-109728000D03*
D26*
X168407000Y-109728000D03*
D33*
X135382000Y-112368500D03*
X135382000Y-110643500D03*
X165610000Y-109722500D03*
X165610000Y-107997500D03*
D29*
X139446000Y-109982000D03*
D34*
X89670000Y-145000000D03*
X168330000Y-145000000D03*
D35*
X164930000Y-153000000D03*
D36*
X156600000Y-137000000D03*
X101400000Y-153000000D03*
D19*
X150517500Y-85000000D03*
X152342500Y-85000000D03*
D37*
X165354000Y-114284000D03*
X165354000Y-112284000D03*
D19*
X137527500Y-103800000D03*
X139352500Y-103800000D03*
D38*
X156467500Y-85950000D03*
X156467500Y-84050000D03*
X154592500Y-85000000D03*
D39*
X100734000Y-92243000D03*
X100734000Y-93968000D03*
D20*
X107796500Y-87260000D03*
X105971500Y-87260000D03*
D33*
X129110000Y-109832500D03*
X129110000Y-108107500D03*
D20*
X107796500Y-85660000D03*
X105971500Y-85660000D03*
D40*
X148295000Y-109552000D03*
X147645000Y-109552000D03*
X146995000Y-109552000D03*
X146345000Y-109552000D03*
X146345000Y-112952000D03*
X146995000Y-112952000D03*
X147645000Y-112952000D03*
X148295000Y-112952000D03*
D39*
X100674000Y-96175500D03*
X100674000Y-97900500D03*
D26*
X88345000Y-79027000D03*
X90885000Y-79027000D03*
X93425000Y-79027000D03*
X95965000Y-79027000D03*
X98505000Y-79027000D03*
X101045000Y-79027000D03*
X103585000Y-79027000D03*
X106125000Y-79027000D03*
X108665000Y-79027000D03*
X111205000Y-79027000D03*
X113745000Y-79027000D03*
X116285000Y-79027000D03*
X118825000Y-79027000D03*
X121365000Y-79027000D03*
X123905000Y-79027000D03*
X126445000Y-79027000D03*
X128985000Y-79027000D03*
X131525000Y-79027000D03*
X134065000Y-79027000D03*
X136605000Y-79027000D03*
X139145000Y-79027000D03*
X141685000Y-79027000D03*
X144225000Y-79027000D03*
X146765000Y-79027000D03*
X149305000Y-79027000D03*
X151845000Y-79027000D03*
X154385000Y-79027000D03*
X156925000Y-79027000D03*
X159465000Y-79027000D03*
X162005000Y-79027000D03*
X164545000Y-79027000D03*
X167085000Y-79027000D03*
D25*
X169625000Y-79027000D03*
D41*
X141948000Y-111690000D03*
X142748000Y-111690000D03*
X143548000Y-111690000D03*
X143548000Y-109290000D03*
X142748000Y-109290000D03*
X141948000Y-109290000D03*
D42*
X142748000Y-110490000D03*
D19*
X135231500Y-99060000D03*
X137056500Y-99060000D03*
D18*
X139700000Y-93321500D03*
X139700000Y-95146500D03*
D19*
X145175000Y-115570000D03*
X147000000Y-115570000D03*
D29*
X130770000Y-92130000D03*
D43*
X119888000Y-98774000D03*
X119888000Y-94774000D03*
D19*
X135207500Y-100740000D03*
X137032500Y-100740000D03*
D44*
X123522500Y-95062000D03*
X123522500Y-96962000D03*
X125397500Y-96012000D03*
D29*
X142494000Y-114554000D03*
D19*
X160147500Y-109300000D03*
X161972500Y-109300000D03*
D23*
X160161000Y-107442000D03*
X161911000Y-107442000D03*
D45*
X164250000Y-103450000D03*
X164900000Y-103450000D03*
X165550000Y-103450000D03*
X165550000Y-101550000D03*
X164900000Y-101550000D03*
X164250000Y-101550000D03*
D46*
X163256000Y-111730000D03*
X162306000Y-111730000D03*
X161356000Y-111730000D03*
X161356000Y-114330000D03*
X163256000Y-114330000D03*
D31*
X119126000Y-85494500D03*
X119126000Y-83669500D03*
D29*
X133604000Y-103378000D03*
D19*
X118063000Y-92456000D03*
X119888000Y-92456000D03*
D47*
X140527000Y-98171000D03*
X140527000Y-99441000D03*
X140527000Y-100711000D03*
X140527000Y-101981000D03*
X145477000Y-101981000D03*
X145477000Y-100711000D03*
X145477000Y-99441000D03*
X145477000Y-98171000D03*
D29*
X132588000Y-97028000D03*
D25*
X169625000Y-68867000D03*
D26*
X167085000Y-68867000D03*
X164545000Y-68867000D03*
X162005000Y-68867000D03*
X159465000Y-68867000D03*
X156925000Y-68867000D03*
X154385000Y-68867000D03*
X151845000Y-68867000D03*
X149305000Y-68867000D03*
X146765000Y-68867000D03*
X144225000Y-68867000D03*
X141685000Y-68867000D03*
X139145000Y-68867000D03*
X136605000Y-68867000D03*
X134065000Y-68867000D03*
X131525000Y-68867000D03*
X128985000Y-68867000D03*
X126445000Y-68867000D03*
X123905000Y-68867000D03*
X121365000Y-68867000D03*
X118825000Y-68867000D03*
X116285000Y-68867000D03*
X113745000Y-68867000D03*
X111205000Y-68867000D03*
X108665000Y-68867000D03*
X106125000Y-68867000D03*
X103585000Y-68867000D03*
X101045000Y-68867000D03*
X98505000Y-68867000D03*
X95965000Y-68867000D03*
X93425000Y-68867000D03*
X90885000Y-68867000D03*
X88345000Y-68867000D03*
D44*
X154002500Y-106746000D03*
X154002500Y-108646000D03*
X155877500Y-107696000D03*
D31*
X115570000Y-85494500D03*
X115570000Y-83669500D03*
D25*
X123952000Y-85593000D03*
D26*
X123952000Y-88133000D03*
D29*
X173228000Y-135890000D03*
D19*
X160617500Y-84020000D03*
X162442500Y-84020000D03*
D18*
X148694000Y-101547500D03*
X148694000Y-103372500D03*
D25*
X131890000Y-109820000D03*
D26*
X131890000Y-112360000D03*
D48*
X104901500Y-96028000D03*
X104901500Y-95078000D03*
X104901500Y-94128000D03*
X102626500Y-94128000D03*
X102626500Y-96028000D03*
D19*
X93971500Y-86960000D03*
X95796500Y-86960000D03*
D49*
X103059000Y-88265000D03*
X103059000Y-86995000D03*
X103059000Y-85725000D03*
X103059000Y-84455000D03*
X98109000Y-84455000D03*
X98109000Y-85725000D03*
X98109000Y-86995000D03*
X98109000Y-88265000D03*
D33*
X162100000Y-94662500D03*
X162100000Y-92937500D03*
X125380000Y-109350000D03*
X125380000Y-107625000D03*
D25*
X169625000Y-129827000D03*
D26*
X167085000Y-129827000D03*
X164545000Y-129827000D03*
X162005000Y-129827000D03*
X159465000Y-129827000D03*
X156925000Y-129827000D03*
X154385000Y-129827000D03*
X151845000Y-129827000D03*
X149305000Y-129827000D03*
X146765000Y-129827000D03*
X144225000Y-129827000D03*
X141685000Y-129827000D03*
X139145000Y-129827000D03*
X136605000Y-129827000D03*
X134065000Y-129827000D03*
X131525000Y-129827000D03*
X128985000Y-129827000D03*
X126445000Y-129827000D03*
X123905000Y-129827000D03*
X121365000Y-129827000D03*
X118825000Y-129827000D03*
X116285000Y-129827000D03*
X113745000Y-129827000D03*
X111205000Y-129827000D03*
X108665000Y-129827000D03*
X106125000Y-129827000D03*
X103585000Y-129827000D03*
X101045000Y-129827000D03*
X98505000Y-129827000D03*
X95965000Y-129827000D03*
X93425000Y-129827000D03*
X90885000Y-129827000D03*
X88345000Y-129827000D03*
D33*
X160600000Y-94662500D03*
X160600000Y-92937500D03*
D29*
X107696000Y-108204000D03*
D50*
X156940000Y-99000000D03*
D51*
X158440000Y-101400000D03*
X157940000Y-101400000D03*
X157440000Y-101400000D03*
X156940000Y-101400000D03*
X156440000Y-101400000D03*
X155940000Y-101400000D03*
X155440000Y-101400000D03*
D52*
X154540000Y-100500000D03*
X154540000Y-100000000D03*
X154540000Y-99500000D03*
X154540000Y-99000000D03*
X154540000Y-98500000D03*
X154540000Y-98000000D03*
X154540000Y-97500000D03*
D51*
X155440000Y-96600000D03*
X155940000Y-96600000D03*
X156440000Y-96600000D03*
X156940000Y-96600000D03*
X157440000Y-96600000D03*
X157940000Y-96600000D03*
X158440000Y-96600000D03*
D52*
X159340000Y-97500000D03*
X159340000Y-98000000D03*
X159340000Y-98500000D03*
X159340000Y-99000000D03*
X159340000Y-99500000D03*
X159340000Y-100000000D03*
X159340000Y-100500000D03*
D31*
X141390000Y-93317500D03*
X141390000Y-95142500D03*
D26*
X88345000Y-119667000D03*
X90885000Y-119667000D03*
X93425000Y-119667000D03*
X95965000Y-119667000D03*
X98505000Y-119667000D03*
X101045000Y-119667000D03*
X103585000Y-119667000D03*
X106125000Y-119667000D03*
X108665000Y-119667000D03*
X111205000Y-119667000D03*
X113745000Y-119667000D03*
X116285000Y-119667000D03*
X118825000Y-119667000D03*
X121365000Y-119667000D03*
X123905000Y-119667000D03*
X126445000Y-119667000D03*
X128985000Y-119667000D03*
X131525000Y-119667000D03*
X134065000Y-119667000D03*
X136605000Y-119667000D03*
X139145000Y-119667000D03*
X141685000Y-119667000D03*
X144225000Y-119667000D03*
X146765000Y-119667000D03*
X149305000Y-119667000D03*
X151845000Y-119667000D03*
X154385000Y-119667000D03*
X156925000Y-119667000D03*
X159465000Y-119667000D03*
X162005000Y-119667000D03*
X164545000Y-119667000D03*
X167085000Y-119667000D03*
D25*
X169625000Y-119667000D03*
D30*
X159020000Y-89360000D03*
X163020000Y-89360000D03*
D33*
X106934000Y-94080500D03*
X106934000Y-92355500D03*
D53*
X175250000Y-102873250D03*
D54*
X172600000Y-101698250D03*
X172600000Y-96848250D03*
D53*
X175250000Y-95673250D03*
D55*
X175275000Y-100073250D03*
X175275000Y-98473250D03*
D56*
X172625000Y-97973250D03*
X172625000Y-98623250D03*
X172625000Y-99273250D03*
X172625000Y-99923250D03*
X172625000Y-100573250D03*
D19*
X160617500Y-85970000D03*
X162442500Y-85970000D03*
D57*
X115948000Y-87442000D03*
X115948000Y-88392000D03*
X115948000Y-89342000D03*
X118748000Y-89342000D03*
X118748000Y-88392000D03*
X118748000Y-87442000D03*
D58*
X117348000Y-88392000D03*
D59*
X98112500Y-89960000D03*
X96387500Y-89960000D03*
D60*
X163837500Y-96300000D03*
X165562500Y-96300000D03*
D32*
X170540000Y-113242500D03*
X168640000Y-113242500D03*
X169590000Y-115117500D03*
D25*
X88340000Y-87390000D03*
D26*
X88340000Y-89930000D03*
X88340000Y-92470000D03*
X88340000Y-95010000D03*
X88340000Y-97550000D03*
X88340000Y-100090000D03*
X88340000Y-102630000D03*
X88340000Y-105170000D03*
X88340000Y-107710000D03*
X88340000Y-110250000D03*
D25*
X112522000Y-103124000D03*
D26*
X112522000Y-105664000D03*
X112522000Y-108204000D03*
D39*
X150242000Y-101585000D03*
X150242000Y-103310000D03*
D20*
X137056500Y-97282000D03*
X135231500Y-97282000D03*
D39*
X120904000Y-88291500D03*
X120904000Y-90016500D03*
M02*
