M48
; DRILL file {KiCad 6.0.4} date Sat 09 Apr 2022 16:34:30
; FORMAT={-:-/ absolute / metric / decimal}
; #@! TF.CreationDate,2022-04-09T16:34:30+02:00
; #@! TF.GenerationSoftware,Kicad,Pcbnew,6.0.4
; #@! TF.FileFunction,Plated,1,2,PTH
FMAT,2
METRIC
; #@! TA.AperFunction,Plated,PTH,ViaDrill
T1C0.300
; #@! TA.AperFunction,Plated,PTH,ViaDrill
T2C0.400
; #@! TA.AperFunction,Plated,PTH,ComponentDrill
T3C0.500
; #@! TA.AperFunction,Plated,PTH,ComponentDrill
T4C0.700
; #@! TA.AperFunction,Plated,PTH,ComponentDrill
T5C1.000
%
G90
G05
T1
X161.39Y-99.2
X162.67Y-98.34
X163.12Y-101.57
T2
X84.2Y-80.63
X85.29Y-82.7
X92.6Y-110.91
X93.24Y-94.51
X94.44Y-89.96
X94.86Y-93.12
X96.75Y-96.17
X98.11Y-91.33
X98.264Y-96.175
X103.65Y-102.99
X104.9Y-97.36
X107.67Y-106.07
X114.04Y-83.68
X123.53Y-92.28
X130.33Y-96.95
X132.79Y-99.87
X135.2Y-88.6
X137.37Y-111.41
X137.55Y-102.27
X138.64Y-96.95
X139.17Y-112.4
X140.21Y-90.91
X142.75Y-108.02
X144.8Y-108.01
X145.02Y-112.96
X147.0Y-107.46
X148.61Y-107.58
X148.69Y-96.24
X149.15Y-85.0
X149.38Y-115.51
X155.18Y-92.71
X156.47Y-89.37
X156.52Y-103.12
X156.826Y-104.071
X157.46Y-110.37
X159.75Y-114.33
X161.19Y-100.37
X163.82Y-94.64
X163.84Y-97.63
X164.13Y-91.93
X167.16Y-102.31
X168.6Y-100.51
X170.52Y-96.33
X173.43Y-132.44
T4
X172.6Y-96.848
X172.6Y-101.698
T5
X88.34Y-87.39
X88.34Y-89.93
X88.34Y-92.47
X88.34Y-95.01
X88.34Y-97.55
X88.34Y-100.09
X88.34Y-102.63
X88.34Y-105.17
X88.34Y-107.71
X88.34Y-110.25
X88.345Y-68.867
X88.345Y-79.027
X88.345Y-119.667
X88.345Y-129.827
X90.885Y-68.867
X90.885Y-79.027
X90.885Y-119.667
X90.885Y-129.827
X93.425Y-68.867
X93.425Y-79.027
X93.425Y-119.667
X93.425Y-129.827
X95.965Y-68.867
X95.965Y-79.027
X95.965Y-119.667
X95.965Y-129.827
X98.505Y-68.867
X98.505Y-79.027
X98.505Y-119.667
X98.505Y-129.827
X101.045Y-68.867
X101.045Y-79.027
X101.045Y-119.667
X101.045Y-129.827
X103.585Y-68.867
X103.585Y-79.027
X103.585Y-119.667
X103.585Y-129.827
X106.125Y-68.867
X106.125Y-79.027
X106.125Y-119.667
X106.125Y-129.827
X108.665Y-68.867
X108.665Y-79.027
X108.665Y-119.667
X108.665Y-129.827
X111.205Y-68.867
X111.205Y-79.027
X111.205Y-119.667
X111.205Y-129.827
X112.522Y-92.217
X112.522Y-94.757
X112.522Y-97.297
X112.522Y-103.124
X112.522Y-105.664
X112.522Y-108.204
X113.745Y-68.867
X113.745Y-79.027
X113.745Y-119.667
X113.745Y-129.827
X116.285Y-68.867
X116.285Y-79.027
X116.285Y-119.667
X116.285Y-129.827
X118.825Y-68.867
X118.825Y-79.027
X118.825Y-119.667
X118.825Y-129.827
X121.365Y-68.867
X121.365Y-79.027
X121.365Y-119.667
X121.365Y-129.827
X123.905Y-68.867
X123.905Y-79.027
X123.905Y-119.667
X123.905Y-129.827
X123.952Y-85.593
X123.952Y-88.133
X126.445Y-68.867
X126.445Y-79.027
X126.445Y-119.667
X126.445Y-129.827
X128.985Y-68.867
X128.985Y-79.027
X128.985Y-119.667
X128.985Y-129.827
X131.525Y-68.867
X131.525Y-79.027
X131.525Y-119.667
X131.525Y-129.827
X131.89Y-109.82
X131.89Y-112.36
X134.065Y-68.867
X134.065Y-79.027
X134.065Y-119.667
X134.065Y-129.827
X136.605Y-68.867
X136.605Y-79.027
X136.605Y-119.667
X136.605Y-129.827
X139.145Y-68.867
X139.145Y-79.027
X139.145Y-119.667
X139.145Y-129.827
X141.685Y-68.867
X141.685Y-79.027
X141.685Y-119.667
X141.685Y-129.827
X144.225Y-68.867
X144.225Y-79.027
X144.225Y-119.667
X144.225Y-129.827
X146.765Y-68.867
X146.765Y-79.027
X146.765Y-119.667
X146.765Y-129.827
X149.305Y-68.867
X149.305Y-79.027
X149.305Y-119.667
X149.305Y-129.827
X151.845Y-68.867
X151.845Y-79.027
X151.845Y-119.667
X151.845Y-129.827
X154.385Y-68.867
X154.385Y-79.027
X154.385Y-119.667
X154.385Y-129.827
X156.925Y-68.867
X156.925Y-79.027
X156.925Y-119.667
X156.925Y-129.827
X159.465Y-68.867
X159.465Y-79.027
X159.465Y-119.667
X159.465Y-129.827
X162.005Y-68.867
X162.005Y-79.027
X162.005Y-119.667
X162.005Y-129.827
X164.545Y-68.867
X164.545Y-79.027
X164.545Y-119.667
X164.545Y-129.827
X167.085Y-68.867
X167.085Y-79.027
X167.085Y-119.667
X167.085Y-129.827
X168.407Y-109.728
X169.625Y-68.867
X169.625Y-79.027
X169.625Y-119.667
X169.625Y-129.827
X170.947Y-109.728
T3
X175.65Y-95.673G85X174.85Y-95.673
G05
X175.65Y-102.873G85X174.85Y-102.873
G05
T0
M30
