G04 #@! TF.GenerationSoftware,KiCad,Pcbnew,6.0.4*
G04 #@! TF.CreationDate,2022-04-09T16:32:54+02:00*
G04 #@! TF.ProjectId,main,6d61696e-2e6b-4696-9361-645f70636258,rev?*
G04 #@! TF.SameCoordinates,Original*
G04 #@! TF.FileFunction,Soldermask,Bot*
G04 #@! TF.FilePolarity,Negative*
%FSLAX46Y46*%
G04 Gerber Fmt 4.6, Leading zero omitted, Abs format (unit mm)*
G04 Created by KiCad (PCBNEW 6.0.4) date 2022-04-09 16:32:54*
%MOMM*%
%LPD*%
G01*
G04 APERTURE LIST*
%ADD10R,1.700000X1.700000*%
%ADD11O,1.700000X1.700000*%
%ADD12C,2.390000*%
%ADD13C,3.450000*%
%ADD14O,2.140000X1.070000*%
%ADD15C,1.300000*%
G04 APERTURE END LIST*
D10*
X112522000Y-92217000D03*
D11*
X112522000Y-94757000D03*
X112522000Y-97297000D03*
D10*
X170947000Y-109728000D03*
D11*
X168407000Y-109728000D03*
D12*
X164930000Y-153000000D03*
D13*
X156600000Y-137000000D03*
X101400000Y-153000000D03*
D11*
X88345000Y-79027000D03*
X90885000Y-79027000D03*
X93425000Y-79027000D03*
X95965000Y-79027000D03*
X98505000Y-79027000D03*
X101045000Y-79027000D03*
X103585000Y-79027000D03*
X106125000Y-79027000D03*
X108665000Y-79027000D03*
X111205000Y-79027000D03*
X113745000Y-79027000D03*
X116285000Y-79027000D03*
X118825000Y-79027000D03*
X121365000Y-79027000D03*
X123905000Y-79027000D03*
X126445000Y-79027000D03*
X128985000Y-79027000D03*
X131525000Y-79027000D03*
X134065000Y-79027000D03*
X136605000Y-79027000D03*
X139145000Y-79027000D03*
X141685000Y-79027000D03*
X144225000Y-79027000D03*
X146765000Y-79027000D03*
X149305000Y-79027000D03*
X151845000Y-79027000D03*
X154385000Y-79027000D03*
X156925000Y-79027000D03*
X159465000Y-79027000D03*
X162005000Y-79027000D03*
X164545000Y-79027000D03*
X167085000Y-79027000D03*
D10*
X169625000Y-79027000D03*
X169625000Y-68867000D03*
D11*
X167085000Y-68867000D03*
X164545000Y-68867000D03*
X162005000Y-68867000D03*
X159465000Y-68867000D03*
X156925000Y-68867000D03*
X154385000Y-68867000D03*
X151845000Y-68867000D03*
X149305000Y-68867000D03*
X146765000Y-68867000D03*
X144225000Y-68867000D03*
X141685000Y-68867000D03*
X139145000Y-68867000D03*
X136605000Y-68867000D03*
X134065000Y-68867000D03*
X131525000Y-68867000D03*
X128985000Y-68867000D03*
X126445000Y-68867000D03*
X123905000Y-68867000D03*
X121365000Y-68867000D03*
X118825000Y-68867000D03*
X116285000Y-68867000D03*
X113745000Y-68867000D03*
X111205000Y-68867000D03*
X108665000Y-68867000D03*
X106125000Y-68867000D03*
X103585000Y-68867000D03*
X101045000Y-68867000D03*
X98505000Y-68867000D03*
X95965000Y-68867000D03*
X93425000Y-68867000D03*
X90885000Y-68867000D03*
X88345000Y-68867000D03*
D10*
X123952000Y-85593000D03*
D11*
X123952000Y-88133000D03*
D10*
X131890000Y-109820000D03*
D11*
X131890000Y-112360000D03*
D10*
X169625000Y-129827000D03*
D11*
X167085000Y-129827000D03*
X164545000Y-129827000D03*
X162005000Y-129827000D03*
X159465000Y-129827000D03*
X156925000Y-129827000D03*
X154385000Y-129827000D03*
X151845000Y-129827000D03*
X149305000Y-129827000D03*
X146765000Y-129827000D03*
X144225000Y-129827000D03*
X141685000Y-129827000D03*
X139145000Y-129827000D03*
X136605000Y-129827000D03*
X134065000Y-129827000D03*
X131525000Y-129827000D03*
X128985000Y-129827000D03*
X126445000Y-129827000D03*
X123905000Y-129827000D03*
X121365000Y-129827000D03*
X118825000Y-129827000D03*
X116285000Y-129827000D03*
X113745000Y-129827000D03*
X111205000Y-129827000D03*
X108665000Y-129827000D03*
X106125000Y-129827000D03*
X103585000Y-129827000D03*
X101045000Y-129827000D03*
X98505000Y-129827000D03*
X95965000Y-129827000D03*
X93425000Y-129827000D03*
X90885000Y-129827000D03*
X88345000Y-129827000D03*
X88345000Y-119667000D03*
X90885000Y-119667000D03*
X93425000Y-119667000D03*
X95965000Y-119667000D03*
X98505000Y-119667000D03*
X101045000Y-119667000D03*
X103585000Y-119667000D03*
X106125000Y-119667000D03*
X108665000Y-119667000D03*
X111205000Y-119667000D03*
X113745000Y-119667000D03*
X116285000Y-119667000D03*
X118825000Y-119667000D03*
X121365000Y-119667000D03*
X123905000Y-119667000D03*
X126445000Y-119667000D03*
X128985000Y-119667000D03*
X131525000Y-119667000D03*
X134065000Y-119667000D03*
X136605000Y-119667000D03*
X139145000Y-119667000D03*
X141685000Y-119667000D03*
X144225000Y-119667000D03*
X146765000Y-119667000D03*
X149305000Y-119667000D03*
X151845000Y-119667000D03*
X154385000Y-119667000D03*
X156925000Y-119667000D03*
X159465000Y-119667000D03*
X162005000Y-119667000D03*
X164545000Y-119667000D03*
X167085000Y-119667000D03*
D10*
X169625000Y-119667000D03*
D14*
X175250000Y-102873250D03*
D15*
X172600000Y-101698250D03*
X172600000Y-96848250D03*
D14*
X175250000Y-95673250D03*
D10*
X88340000Y-87390000D03*
D11*
X88340000Y-89930000D03*
X88340000Y-92470000D03*
X88340000Y-95010000D03*
X88340000Y-97550000D03*
X88340000Y-100090000D03*
X88340000Y-102630000D03*
X88340000Y-105170000D03*
X88340000Y-107710000D03*
X88340000Y-110250000D03*
D10*
X112522000Y-103124000D03*
D11*
X112522000Y-105664000D03*
X112522000Y-108204000D03*
M02*
